<svg xmlns="http://www.w3.org/2000/svg" fill-rule="evenodd" image-rendering="optimizeQuality" shape-rendering="geometricPrecision" viewBox="0 0 10240 10240" xmlns:v="https://vecta.io/nano"><path d="M5110 1630a560 560 0 00-120 20q-50-10-100 20h-100q-20 30-40 0-30-10-60 20l-70-10q-20 50-50 10-50 0-80 40-180 20 0 30-70 10-130 40h-60l-50-20 100-10a3210 3210 0 01-340-20q-20-20-10-30l10 10q40-50 110-60h350a300 300 0 01 80-50l20 20q20-20 50-10-40 20 0 40a1850 1850 0 00 130-50l-50-10a130 130 0 01 70 0l-10 10a80 80 0 01 40 30 40 40 0 00 10-20l10 10q140-30 290-10" fill="#af0f13"/><path d="M5550 1680h70l30 20-230-10a980 980 0 00-130 40l-10-20-30 30q-40-30-60 30l-10-10-70 40-20-20a140 140 0 01-40 30q-110-20-220-10-50 30-50 80 30 10 20 40a1270 1270 0 01-120-40q10-20 30-20l-80-30a70 70 0 00 20-30l10 10q10-30 40-30l80 30a540 540 0 00 50-50 40 40 0 00 20 10q80-40 160-50l40 10q30-40 60-20 210-60 440-30" fill="#cc1515"/><path d="M5150 1610h20l130 30a1690 1690 0 00-190-10q-150-20-290 10l-10-10a40 40 0 01-10 20 80 80 0 00-40-30l10-10a130 130 0 00-70 0l50 10a1850 1850 0 01-130 50q-40-20 0-40-30-10-50 10l-20-20a300 300 0 00-80 50h-350q-70 10-110 60l-10-10q-10 10 10 30a3210 3210 0 00 340 20l-100 10 50 20h-300q-50-10-90 20-50 0-80 30h-10q-20 0-30 20-30-10-30 20-30-10-30 20-30 0-40 30-20 0-20 20l-50 40q-20-20 0-40-70-40-100 40a340 340 0 01-70 20 1610 1610 0 01 180-160 920 920 0 00 110-70q260-140 550-180h10a4620 4620 0 01 850 0" fill="#ac1e18"/><path d="M5650 1700q40-10 90 20-100-10-180 10 10 20 20 10a300 300 0 00 30 40l-30-10a40 40 0 00-20 10l10 50q-40-20-70-10a70 70 0 00-20 30 40 40 0 00-10-10 330 330 0 00-100 30q-30-20-30 20-40-40-80-40v30l-20 20-70-20-20 20q-20-20-40 0a70 70 0 00-20-20 1100 1100 0 00-70 20l-10-10a250 250 0 01-80 20 70 70 0 01 30 20l-20 40a870 870 0 01-140-50q10-30-20-40 0-50 50-80 110-10 220 10a140 140 0 00 40-30l20 20 70-40 10 10q20-60 60-30l30-30 10 20a980 980 0 01 130-40l230 10" fill="#db1815"/><path d="M5110 1630q90-10 190 10 120 0 250 40-230-30-440 30-30-20-60 20l-40-10q-80 10-160 50a40 40 0 01-20-10 540 540 0 01-50 50l-80-30q-30 0-40 30l-10-10a70 70 0 01-20 30l80 30q-20 0-30 20a2810 2810 0 00-320-80q60-30 130-40-180-10 0-30 30-40 80-40 30 40 50-10l70 10q30-30 60-20 20 30 40 0h100q50-30 100-20a560 560 0 01 120-20" fill="#be1214"/><path d="M5740 1720h60l270 70a10940 10940 0 01 310 100l-30 10a1140 1140 0 00-210-60 760 760 0 00-160 20 40 40 0 00-20-10q-60 70-120 10a470 470 0 00-60 40q-10-60-40 0-10-20-20 0v50a70 70 0 00-10-30 190 190 0 01-50 30v-30a50 50 0 00-30 0l10 10a100 100 0 00-30 20q-10-60-40-10-20-30-40-20 30 10 0 40-40-50-80 10-10-40-40-50 0 50-30 20 0 70-30 10-20 10 0 20l-20 10q-20-20-30 0-20-40-40-10l-30-40-130 60 100 20-50 10q-10 20 10 40l-220-90 20-40a70 70 0 00-30-20 250 250 0 00 80-20l10 10a1100 1100 0 01 70-20 70 70 0 01 20 20q20-20 40 0l20-20 70 20 20-20v-30q40 0 80 40 0-40 30-20a330 330 0 01 100-30 40 40 0 01 10 10 70 70 0 01 20-30q30-10 70 10l-10-50a40 40 0 01 20-10l30 10a300 300 0 01-30-40q-10 10-20-10 80-20 180-10" fill="#e32016"/><path d="M6140 1840q-10 40 30 20a610 610 0 01 80 40 40 40 0 00 10-10 150 150 0 00 50 10 750 750 0 00-140 40 4610 4610 0 01-140-30 80 80 0 00 0 40h-60a460 460 0 00-70 30 40 40 0 01-20-10 540 540 0 00-60 30q-10-60-30 0-20-20-40 0l10 20q-20-10-30 20l-30-10q0 20-20 10l-110 20 20 10a790 790 0 01-100 20l-10 40-10-10a230 230 0 01-80 20q-40 0-60-30h-20l50-20a70 70 0 00-30-20q30-10 60 10l10-20 50 10a810 810 0 01 70-70 70 70 0 00-30-20l80-20q40 10 10 20l10 20q20-40 70-50a190 190 0 00 50-30 70 70 0 01 10 30v-50q10-20 20 0 30-60 40 0a470 470 0 01 60-40q60 60 120-10a40 40 0 01 20 10 760 760 0 01 160-20" fill="#ea2817"/><path d="M5660 1950q-50 10-70 50l-10-20q30-10-10-20l-80 20a70 70 0 01 30 20 810 810 0 00-70 70l-50-10-10 20q-30-20-60-10a70 70 0 01 30 20l-50 20h20q20 30 60 30a60 60 0 00 10 30l-240-110q-20-20-10-40l50-10a520 520 0 00-100-20l130-60 30 40q20-30 40 10 10-20 30 0l20-10q-20-10 0-20 30 60 30-10 30 30 30-20 30 10 40 50 40-60 80-10 30-30 0-40 20-10 40 20 30-50 40 10a100 100 0 01 30-20l-10-10a50 50 0 01 30 0" fill="#e82318"/><path d="M6170 1940a20 20 0 01-10 20l-30-10a110 110 0 01-30 10l10 10q-50 0-80 40 20 20-10 40l-10-20q-40-10-70 20l-20-20a130 130 0 01-50 30l-80-10a50 50 0 00 0 30l-50-20a180 180 0 00-50 40l-10-10 20 30h-40l-50 30-30-20a110 110 0 00-20 20l-160 20a60 60 0 01-10-30l80-20 10 10 10-40a790 790 0 00 100-20l-20-10 110-20q20 10 20-10l30 10q10-30 30-20a40 40 0 00-10-20q20-20 40 0 20-60 30 0a540 540 0 01 60-30l20 10a460 460 0 01 70-30h60a80 80 0 01 0-40 4610 4610 0 00 140 30" fill="#eb2e18"/><path d="M6410 1900q230 60 440 170a310 310 0 01-20 20 550 550 0 00 40 20q10 10-10 20a200 200 0 01-60-20q30-10 0-20a90 90 0 00-50 20 70 70 0 00-20-30h-60q-30 20-30 50h-60q-40 0-40 30l-40-20q-30 10-30 50h-130q-10 10 20 20-40 20-80 10a840 840 0 01-80 40q-30-50-20 10a3300 3300 0 00-190 30 70 70 0 01-20 20l10 10q-30 10-40-10-60 20 0 40a2510 2510 0 01-100 0l-10 10q30 10 20 40a330 330 0 00-70-30 650 650 0 00-90-60l70-30 10 10a340 340 0 01 80-20 110 110 0 01 20-20q40 60 30-20 10-10 30 10 0-50 30-10l60-10v-30l120-20h80a520 520 0 01 70-40l120-20q40 20 40-30a280 280 0 00 70-20l50 10 140-20q10 10 30-10h50q-150-50-290-50a110 110 0 01 30-50q-80 0-120-50" fill="#ed461d"/><path d="M6140 1840a1140 1140 0 01 210 60 110 110 0 00 30-10 60 60 0 01 30 10q40 50 120 50a110 110 0 00-30 50l-40-30q-70 40-140 10-30 0 10 10h-60a70 70 0 00-20 30q-70-20-120 30-60 0-110 50a40 40 0 00-20-10 800 800 0 00-110 50 180 180 0 00-30-20 580 580 0 00-80 40v20q-20-30-40-20 30 10 0 40l-70 20 10 50q-30-10-40 20l-120-50a72080 72080 0 00-120-70l160-20a110 110 0 01 20-20l30 20 50-30h40l-20-30 10 10a180 180 0 01 50-40l50 20a50 50 0 01 0-30l80 10a130 130 0 00 50-30l20 20q30-30 70-20l10 20q30-20 10-40 30-40 80-40l-10-10a110 110 0 00 30-10l30 10a20 20 0 00 10-20 750 750 0 01 140-40 150 150 0 01-50-10 40 40 0 01-10 10 610 610 0 00-80-40q-40 20-30-20" fill="#eb351a"/><path d="M6860 2130a680 680 0 00-90 60q-50-20-90 20-30-20-60-10l-30 30-10-20a110 110 0 01-30 10q30 10 0 20-50-40-60 30-30-30-60-20-20 20-10 40-30 0-40-20-20 0 0 10a320 320 0 00-60 20q-30-20-50 10-20-20-20 10l-10-20q-10 30-40 10-20 30-60 30l20 10-80 30q-60-30-50 40a50 50 0 00-30 0q10 20-10 40a200 200 0 00-30 20 920 920 0 01-110-70q10-30-20-40l10-10h100q-60-20 0-40 10 20 40 10l-10-10a70 70 0 00 20-20 3300 3300 0 01 190-30q-10-60 20-10a840 840 0 00 80-40q40 10 80-10-30-10-20-20h130q0-40 30-50l40 20q0-30 40-30h60q0-30 30-50h60a70 70 0 01 20 30 90 90 0 01 50-20q30 10 0 20a200 200 0 00 60 20" fill="#ee4e1d"/><path d="M6500 2000q-40 10 0 30l-20 10q-50-30-90 20-50-20-90 0 20 10 10 40-40-20-90-10l-10 20a390 390 0 01-80 0q-40 40-80 10a160 160 0 00-50 20 120 120 0 01-20-10 180 180 0 00-40 50 40 40 0 00-20-10q-30 30-60 20a430 430 0 00-50 10 580 580 0 01-100 90 130 130 0 01-50 10l-20-10q10-30 40-20l-10-50 70-20q30-30 0-40 20-10 40 20v-20a580 580 0 01 80-40 180 180 0 01 30 20 800 800 0 01 110-50 40 40 0 01 20 10q50-50 110-50 50-50 120-30a70 70 0 01 20-30h60q-40-10-10-10 70 30 140-10l40 30" fill="#ed3a19"/><path d="M6850 2070q70 30 90 110l-20 120q-10-20-20-10a290 290 0 00-20-80l-50-10q-20 10-10 40a140 140 0 01-40-30 340 340 0 00-30 60q-10-50-30-20l20 10a70 70 0 00-40 30l-30-40q-50 10 10 20-40 20-70 10l-80 20q30 10 0 20-40-20-70-10t-10 30q-160 20-260 100l-10-30q-20 20-10 40h-20v-10q-30 20-60 10-40 10-10 40a340 340 0 01-70 20 190 190 0 01-50-30 200 200 0 01 30-20q20-20 10-40a50 50 0 01 30 0q-10-70 50-40l80-30-20-10q40 0 60-30 30 20 40-10l10 20q0-30 20-10 20-30 50-10a320 320 0 01 60-20q-20-10 0-10 10 20 40 20-10-20 10-40 30-10 60 20 10-70 60-30 30-10 0-20a110 110 0 00 30-10l10 20 30-30q30-10 60 10 40-40 90-20 40-40 90-60 20-10 10-20a550 550 0 01-40-20 310 310 0 00 20-20" fill="#ef541d"/><path d="M6500 2000q140 0 290 50h-50q-20 20-30 10l-140 20-50-10a280 280 0 01-70 20q0 50-40 30l-120 20a520 520 0 00-70 40h-80l-120 20v30l-60 10q-30-40-30 10-20-20-30-10 10 80-30 20a110 110 0 00-20 20 340 340 0 00-80 20l-10-10-70 30-30-20a130 130 0 00 50-10 580 580 0 00 100-90 430 430 0 01 50-10q30 10 60-20a40 40 0 01 20 10 180 180 0 01 40-50l20 10a160 160 0 01 50-20q40 30 80-10h80l10-20q50-10 90 10 10-30-10-40 40-20 90 0 40-50 90-20l20-10q-40-20 0-30" fill="#ee411b"/><path d="M3620 2000v10l-10 20q-30 10-30 50-30 10-20 40-40 40-50 110a1250 1250 0 00 10 230l-20 10a1620 1620 0 01-20-210 760 760 0 00-30 130 990 990 0 00-30-90l-10 20a100 100 0 00-30-30l-40 20q-30-20 10-30-30-20-50-10l-20 40 10 10q-60 20-90 10a620 620 0 00-10 70 150 150 0 01-20-50l-20 10a46500 46500 0 00 100-150l110-120a720 720 0 01 90-70 340 340 0 00 70-20q30-80 100-40-20 20 0 40" fill="#d61d16"/><path d="M6900 2290q0 110-30 0-30 20-30-10-30 20-70 10a20 20 0 00 0 20q-50 10-70 50h-70a360 360 0 01-110 30 40 40 0 00-10-10v30h-30v-10q-40 30-80 30a150 150 0 01-40 30l-10-10a150 150 0 00-30 30h-100q0 40-40 70a480 480 0 01 50 30 70 70 0 00-10 40h-50a60 60 0 00-30-10q-50-50-100-70a100 100 0 00-30-30 340 340 0 00 70-20q-30-30 10-40 30 10 60-10v10h20q-10-20 10-40l10 30q100-80 260-100-20-20 10-30t70 10q30-10 0-20l80-20q30 10 70-10-60-10-10-20l30 40a70 70 0 01 40-30l-20-10q20-30 30 20a340 340 0 01 30-60 140 140 0 00 40 30q-10-30 10-40l50 10a290 290 0 01 20 80" fill="#ef5a1e"/><path d="M6770 2310q10 20-20 30 50 30 60-10 30 30 40-10 10 20-10 40 30 20 20 60l-10-20q-40 10-10-20-30-10-20-20a90 90 0 01-50 10 150 150 0 01-30 80 70 70 0 00-20-20q-20 0 0 10a150 150 0 00-50 20 40 40 0 00-10-10q-50 40-90 10-30 0 0 10-30 10-30 40l-30-10q30-30-20-20-50 0-40 50-30 0-50 20-30-20-60-10v30a40 40 0 01-20-20 680 680 0 00-50 50l-30 10a90 90 0 01 40 30h-80l-30-20h50a70 70 0 01 10-40 480 480 0 00-50-30q40-30 40-70h100a150 150 0 01 30-30l10 10a150 150 0 00 40-30q40 0 80-30v10h30v-30a40 40 0 01 10 10 360 360 0 00 110-30h70q20-40 70-50" fill="#f0611d"/><path d="m3520 2460 20 70-30 50q-30-20-50 10-10-20 10-40a160 160 0 00-20-30l-10 10-20-60a150 150 0 01-40 10l10 50q-30-10-50 20-20-20-10-40l-50-10-130 110-10-10q20-10 0-20a50 50 0 00-30 0q-20-10-30-60-10-40 40-30a590 590 0 01 30-130l20-10a150 150 0 00 20 50 620 620 0 01 10-70q30 10 90-10l-10-10 20-40q20-10 50 10-40 10-10 30l40-20a100 100 0 01 30 30l10-20a990 990 0 01 30 90 760 760 0 01 30-130l20 210 20-10" fill="#e52116"/><path d="M6940 2180v110a2070 2070 0 01-60 180q-60 40-80 120 0-60-20-100l-20 40-10-10a50 50 0 00 0 30 80 80 0 00-40 0l10 40a80 80 0 00-40 0q10 20-10 20-50-20-80 20l-10-40a50 50 0 00 0 30q-80-10-10 30l-60 10q50-30-10-30a160 160 0 00-40 60 70 70 0 00-30-30l10-10q-90 0-10 40h-30q-60 20 0 40a110 110 0 01-30 30q-20-60-80-50a690 690 0 01-90-70h80a90 90 0 00-40-30l30-10a680 680 0 01 50-50 40 40 0 00 20 20v-30q30-10 60 10 20-20 50-20-10-50 40-50 50-10 20 20l30 10q0-30 30-40-30-10 0-10 40 30 90-10a40 40 0 01 10 10 150 150 0 01 50-20q-20-10 0-10a70 70 0 01 20 20 150 150 0 00 30-80 90 90 0 00 50-10q-10 10 20 20-30 30 10 20l10 20q10-40-20-60 20-20 10-40-10 40-40 10-10 40-60 10 30-10 20-30a20 20 0 01 0-20q40 10 70-10 0 30 30 10 30 110 30 0 10-10 20 10a470 470 0 00 20-120" fill="#f0661f"/><path d="M3150 2360a590 590 0 00-30 130q-50-10-40 30 10 50 30 60a50 50 0 01 30 0q20 10 0 20l10 10 130-110 50 10q-10 20 10 40 20-30 50-20l-10-50a150 150 0 00 40-10l20 60 10-10a160 160 0 01 20 30q-20 20-10 40 20-30 50-10l30-50h10a1380 1380 0 00 50 150l-10 10a720 720 0 00-80 30q10-30-10-40-20 20-40 0 0 20-20 10-30 30-50 0a280 280 0 01-50 10l20 40q-40 20-60 10 10 10-10 30l-50-30a100 100 0 01-30 30l-70-20q-20 30-30 0-30 30-80 30l-10 40h-60a5010 5010 0 01 30-180q50-170 160-290" fill="#e72c19"/><path d="M3590 2690a420 420 0 01 10 80 190 190 0 00-60 0l-40 30 10 20-40 10a80 80 0 00-10-40 230 230 0 01-60 60q-40-40-60 10l-40-20q-10 20-30 20a50 50 0 00-10-30q-10 30-30 20a50 50 0 00 0 30q-40 0-60-20l-10 20a70 70 0 00-20-20q-20 40-50 10-20 0 0 10l-30 10 40 20a110 110 0 00-40 20l-30-40a40 40 0 00 10-10q-30-30-20-50l10-40q50 0 80-30 10 30 30 0l70 20a100 100 0 00 30-30l50 30q20-20 10-30 20 10 60-10l-20-40a280 280 0 00 50-10q20 30 50 0 20 10 20-10 20 20 40 0 20 10 10 40a720 720 0 01 80-30" fill="#e9341a"/><path d="M6880 2470v20q-40 30-40 90a2750 2750 0 00-110 240q-30 0-40 20-30 50-80 80l-10-10-50 40q30 20 0 50l-40-70a50 50 0 00-30 0q-50-100-130-160a260 260 0 00-60-60q60-10 80 50a110 110 0 00 30-30q-60-20 0-40h30q-80-40 10-40l-10 10a70 70 0 01 30 30 160 160 0 01 40-60q60 0 10 30l60-10q-70-40 10-30a50 50 0 01 0-30l10 40q30-40 80-20 20 0 10-20a80 80 0 01 40 0l-10-40a80 80 0 01 40 0 50 50 0 01 0-30l10 10 20-40q20 40 20 100 20-80 80-120" fill="#f17221"/><path d="M2980 2650h10a5010 5010 0 00-30 180h60q-10 20 20 50a40 40 0 01-10 10l30 40a110 110 0 01 40-20l-40-20 30-10q-20-10 0-10 30 30 50-10a70 70 0 01 20 20l10-20q20 20 60 20a50 50 0 01 0-30q20 10 30-20l10 30q20 0 30-20l40 20q20-50 60-10a230 230 0 00 60-60 80 80 0 01 10 40l40-10a40 40 0 00-10-20l40-30a190 190 0 01 60 0q-10 60 30 20 20 40 10 90a40 40 0 01-20-20 370 370 0 01-90 40l10 20-30 10a310 310 0 01-70-20 980 980 0 01-70 30 40 40 0 01-20-10q10 50-30 10l-10 20q-20-60-40 0a40 40 0 00-10-20q-20 10-10 40-50 20-80-10-10 30-40 10-60 10-110 50-30-20-60-10l10 20a160 160 0 00-20 50v30h-10q-20-140-10-270v-10a5450 5450 0 01 50-190" fill="#ea3c1c"/><path d="M3600 2680a3500 3500 0 00 160 280l-20 10a150 150 0 00-30-40q-30 50-30 0-70 0-80 60-20-60-40 0-20-40-40-20l10 10q-30 20-60 10a270 270 0 00-40 20l-20-20a210 210 0 01-10 20 400 400 0 01-70 40l-20-10q90-30-10-10-20-40-30 0-20-20-30 0l10 20-40 30-110-10q-30 10-40 40-60-30-100 20l-10-40a160 160 0 01 20-50 40 40 0 00-10-20q30-10 60 10 50-40 110-50 30 20 40-10 30 30 80 10-10-30 10-40a40 40 0 01 10 20q20-60 40 0l10-20q40 40 30-10l20 10a980 980 0 00 70-30 310 310 0 00 70 20l30-10a40 40 0 00-10-20 370 370 0 00 90-40 40 40 0 00 20 20q10-50-10-90-40 40-30-20a420 420 0 00-10-80l10-10" fill="#ec411d"/><path d="M6730 2820v20q-60 100-90 220a320 320 0 01-90 30 600 600 0 00-70-160 50 50 0 01 30 0l40 70q30-30 0-50l50-40 10 10q50-30 80-80 10-20 40-20" fill="#f1882c"/><path d="M3760 2960a520 520 0 00 10 70 460 460 0 01-140-20q-40 10-20 40a150 150 0 00-50 20q-20-20-30 10a40 40 0 00-10-10q-20 50-60 0l-100 40-50-20a50 50 0 01-10 30q-40-40-60 10-20-20-40 0 20 20-20 40a40 40 0 00-10-10q-20 10-10 40-40 0-70-20-30 30-60-10-20-10-50 20-30-30-30-70v-30l10 40q40-50 100-20 10-30 40-40l110 10 40-30a40 40 0 00-10-20q10-20 30 0 10-40 30 0 100-20 10 10l20 10a400 400 0 00 70-40l10-20 20 20a270 270 0 01 40-20q30 10 60-10l-10-10q20-20 40 20 20-60 40 0 10-60 80-60 0 50 30 0a150 150 0 01 30 40l20-10" fill="#ed471d"/><path d="m3760 2960 20 30v40a390 390 0 00-60 50q-10-20-20-10v30a550 550 0 01-50 20 350 350 0 00-60-10q-30 10 0 30a70 70 0 01-30 20l-10-40q-20 40-60 30a50 50 0 00 0 30 870 870 0 01-90 20q-90-20-170 10 10 20-10 30l-80 20a50 50 0 01-30-10q-30 20-70 20 50 10 0 30a130 130 0 00 0 50q-20 40-50 30a900 900 0 01-50-260h10q0 40 30 70 30-30 50-20 30 40 60 10 30 20 70 20-10-30 10-40a40 40 0 01 10 10q40-20 20-40 20-20 40 0 20-50 60-10a50 50 0 00 10-30l50 20 100-40q40 50 60 0a40 40 0 01 10 10q10-30 30-10a150 150 0 01 50-20q-20-30 20-40a460 460 0 00 140 20 520 520 0 01-10-70" fill="#ed4e1e"/><path d="M3780 2990a880 880 0 01 90 130q-60-30-100 30l-30-30 10 60h-20l-30 30q-50-20 0 10-30 10-50-10a40 40 0 00-20 20q-20-30-50-30-20 10-30-20a50 50 0 00 0 30q-90-20-80 70-30-20-60 0 0 50-30 20h-50q-20 0-30 20-50-20-90-10 10 20-10 30-30-20-50 0l-40-20q-20 10-10 30h-60a130 130 0 01 0-50q50-20 0-30 40 0 70-20a50 50 0 00 30 10 1000 1000 0 01 80-20q20-10 10-30 80-30 170-10a870 870 0 00 90-20 50 50 0 01 0-30q40 10 60-30l10 40a70 70 0 00 30-20q-30-20 0-30l60 10a550 550 0 00 50-20v-30q10-10 20 10a390 390 0 01 60-50v-40" fill="#ee541e"/><path d="M3890 3140a260 260 0 00 60 60l80 110a1120 1120 0 00-20 50q-30-80-90-40 10 20-10 40a70 70 0 01-20-30q-10 30-30 20l-30 30q0-60-40-30a70 70 0 01 30 20l-10 10q-20-20-40-10l10 10a200 200 0 01-50 30h-160a1930 1930 0 01-40 30q-30-40-50 0l-70-10q-20 30-30 0a120 120 0 00-30 40l-100 10-30 40a210 210 0 00-60-30 640 640 0 01-40 50q-10 60 10 120-70-100-110-210 0-30 30-40h50a110 110 0 01 40 20q50-30 100-30l10 10a340 340 0 01 80-20q-40-10 0-20 30 30 80 10l-40-10 10-10a230 230 0 00-50-20 290 290 0 00 40-10h170a150 150 0 00 30-30l10 20q70-30 140-10 20-30 70-50a70 70 0 01 40 20 960 960 0 01 80-90q-20-20-30 0-10-30 10-50" fill="#ef601f"/><path d="m3870 3120 20 20q-20 20-10 50 10-20 30 0a960 960 0 00-80 90 70 70 0 00-40-20q-50 20-70 50-70-20-140 10l-10-20a150 150 0 01-30 30h-170a290 290 0 01-40 10 230 230 0 01 50 20l-10 10 40 10q-50 20-80-10-40 10 0 20a340 340 0 00-80 20l-10-10q-50 0-100 30a110 110 0 00-40-20 230 230 0 01-50 0q-30 10-30 40a330 330 0 01-30-70q30 10 50-30h60q-10-20 10-30l40 20q20-20 50 0 20-10 10-30 40-10 90 10 10-20 30-20h50q30 30 30-20 30-20 60 0-10-90 80-70a50 50 0 01 0-30q10 30 30 20 30 0 50 30a40 40 0 01 20-20q20 20 50 10-50-30 0-10l30-30h20l-10-60 30 30q40-60 100-30" fill="#ef5a1e"/><path d="M4030 3310a70 70 0 01 30 30l10 40q-30 0-40 30-50-30-80 20a40 40 0 00-10-10q-40 50-80 10a50 50 0 00 0 30 50 50 0 01 30 0q-30 20-50 10-20 10 10 20a50 50 0 01-30 10q-10-60-20 0a150 150 0 01-20-50q-20 20-10 50h-50l-60 30a2810 2810 0 00-100-10q-20 40-50 10 0 20-20 10a50 50 0 00 0 30h-70a320 320 0 01-30 40l-10-30q-10 20-30 20v30q-50-30-90 10-20-20-30-10a320 320 0 01-40 30q20 40-20 60l-40-60q-20-60-10-120a640 640 0 00 40-50 210 210 0 01 60 30l30-40 100-10a120 120 0 01 30-40q10 30 30 0l70 10q20-40 50 0a1930 1930 0 00 40-30h160a200 200 0 00 50-30l-10-10q20-10 40 10l10-10a70 70 0 00-30-20q40-30 40 30l30-30q20 10 30-20a70 70 0 00 20 30q20-20 10-40 60-40 90 40a1120 1120 0 01 20-50" fill="#f0671d"/><path d="M4070 3380q20 20 10 50h40l60 70q10 20-10 30l-20-30q-20 0 0 10a670 670 0 00-60 20l-90-30q-20 40-60 20-10 60-20 0-20 30-50 40a40 40 0 00-10-10l-20 30q-40-20-60 30a40 40 0 00-10-10l-20 20q-80-20-170 30l-20-20a380 380 0 01-60 20 110 110 0 00-20 40q0-30-20-40a270 270 0 01-60 10l20 20q-40 0-50 40-20-60-60-10-20-20-40-10 0 30-30 20-10 30-50 30l-20-30q40-20 20-60a320 320 0 00 40-30q10-10 30 10 40-40 90-10v-30q20 0 30-20l10 30a320 320 0 00 30-40h70a50 50 0 01 0-30q20 10 20-10 30 30 50-10l100 10 60-30h50q-10-30 10-50a150 150 0 00 20 50q10-60 20 0a50 50 0 00 30-10q-30-10-10-20 20 10 50-10a50 50 0 00-30 0 50 50 0 01 0-30q40 40 80-10a40 40 0 01 10 10q30-50 80-20 10-30 40-30" fill="#f16d1d"/><path d="m4060 3340 240 250q-40-10-60 20l-40-40a340 340 0 00-80 50l-30-30-10 10q20 20 10 50-30-50-70-50v30l-170 30q-50-20-90-10a150 150 0 01-40 10 70 70 0 00 30 20l-30 30q-20-30-40 0-50 20-90 10a350 350 0 01-90 40q-40-20-70 0 20 10 10 30-10-20-30 0l-30-20q-20 10-20-10-10 40-40 70 10 20-20 30l-30-30a50 50 0 00 0 30l-20-10a460 460 0 00-60-100q40 0 50-30 30 10 30-20 20-10 40 10 40-50 60 10 10-40 50-40l-20-20a270 270 0 00 60-10q20 10 20 40a110 110 0 01 20-40 380 380 0 00 60-20l20 20q90-50 170-30l20-20a40 40 0 01 10 10q20-50 60-30l20-30a40 40 0 01 10 10q30-10 50-40 10 60 20 0 40 20 60-20l90 30a670 670 0 01 60-20q-20-10 0-10l20 30q20-10 10-30l-60-70h-40q10-30-10-50" fill="#f1741f"/><path d="m4300 3590 60 50v10q-30 0-30 30-40-90-100-20-50-20-100-10a880 880 0 01-110 50q-40-40-50 10a630 630 0 00-100 20 730 730 0 00-120 20l-10-10-70 30h-50q-10 60-40 20a70 70 0 00-20 30q-30-20-60 20-30-40-60 10-10-20 10-30-90 0-110 90-30-20-40-50 30-10 20-30 30-30 40-70 0 20 20 10l30 20q20-20 30 0 10-20-10-30 30-20 70 0a350 350 0 00 90-40q40 10 90-10 20-30 40 0l30-30a70 70 0 01-30-20 150 150 0 00 40-10q40-10 90 10l170-30v-30q40 0 70 50 10-30-10-50l10-10 30 30a340 340 0 01 80-50l40 40q20-30 60-20" fill="#f2791e"/><path d="m4360 3640 70 70-10 50q-30-20-30-50h-30q-20 40-60 20a90 90 0 00-30 30 420 420 0 01-80-10q-40 20 0 30h-40q-20 20-50 10l-100 40q-20 20-50 10l-180 30q10 20-20 30-40-20-60 20a40 40 0 01-20-10l-210 70-10-10v40q-30-30-30 10-10-20-20 0a5800 5800 0 01-50-60q30-10 50-40 20 50 50 0l10 10 20-30q20 20 40-10 80 20 110-50a3600 3600 0 01 190 0l20-10q-30-50 20-30 10-30 30-10 0-30 20-10 50-10 80-40a4560 4560 0 01 40 30q20-50 60-20 10-30 40-10l110-40a630 630 0 01 110-20l10-30" fill="#f28621"/><path d="m4360 3650-10 30a630 630 0 00-110 20l-110 40q-30-20-40 10-40-30-60 20a4560 4560 0 00-40-30q-30 30-80 40-20-20-20 10-20-20-30 10-50-20-20 30l-20 10a3600 3600 0 00-190 0q-30 70-110 50-20 30-40 10l-20 30-10-10q-30 50-50 0-20 30-50 40a590 590 0 01-80-100 50 50 0 01 0-30l30 30q10 30 40 50 20-90 110-90-20 10-10 30 30-50 60-10 30-40 60-20a70 70 0 01 20-30q30 40 40-20h50l70-30 10 10a730 730 0 01 120-20 630 630 0 01 100-20q10-50 50-10a880 880 0 00 110-50q50-10 100 10 60-70 100 20 0-30 30-30" fill="#f28020"/><path d="M4420 3760h-60q-70 30-110 70-40-20-70-10-50 30-110 30l10 10q-70 0-120 40a40 40 0 01-20-20q-50 40-110 40a110 110 0 01-30 30h-70q-20 20-40 10-30 20-50 10-40 40-70 10-30 0 0 20a660 660 0 00-110 40q-10-40-20-10l10 30h-10l-40-40q10-20 20 0 0-40 30-10v-40l10 10 210-70 20 10q20-40 60-20 30-10 20-30l180-30q30 10 50-10l100-40q30 10 50-10h40q-40-10 0-30l80 10a90 90 0 01 30-30q40 20 60-20h30q0 30 30 50" fill="#f38c22"/><path d="M4650 3890q40 10 70 60 20 30-20 50h-50a80 80 0 00-10-40l-10 10q-20-20-10-30a330 330 0 00-90 40q-20-60-30-10a290 290 0 00-40 20l-40-10q-10 10 20 20a150 150 0 00-50 20q-20-20 0-30a110 110 0 01-40-10l-20 60-40-10q-30 0-60 30a60 60 0 00-30-10q-70 10-130 40l-40-20q-20 10-10 30-50 10-90 40h-60a2180 2180 0 01-120 50q-20-40-40 0l20 10q-40 0-70 30l-60-10q0-20 20-20l-20-10a180 180 0 00 40-50q50 30 80-20l10 10q10-60 50-10 40-10 70-40l30 10q100-50 240-60 40-10 10-40l10-10q80 0 150-40 60 20 110-10a40 40 0 00 20 20v-30l30 20q20-30 50-30-20-10 0-10a40 40 0 01 10 20q30-20 60 0a190 190 0 00 30-50q20 20 50 20" fill="#f5a527"/><path d="M4650 4000a60 60 0 01-30-10 630 630 0 00-70 40q-50 0-90 30l-50-10a150 150 0 01-60 30 40 40 0 00-10-20 150 150 0 01-40 30q-20-20-40-10 10 50-30 10a70 70 0 01-30 30l-40-10a70 70 0 01-10 30l-10-20-80 40a350 350 0 01-50-10q0 40-20 10h-40q-40 30-90 40a330 330 0 01-120 70 40 40 0 00-20-10 730 730 0 01-60 20 260 260 0 01-60-60l60 10q30-30 70-30l-20-10q20-40 40 0a2180 2180 0 00 120-50h60q40-30 90-40-10-20 10-30l40 20q60-30 130-40a60 60 0 01 30 10q30-30 60-30l40 10 20-60a110 110 0 00 40 10q-20 10 0 30a150 150 0 01 50-20q-30-10-20-20l40 10a290 290 0 01 40-20q10-50 30 10a330 330 0 01 90-40q-10 10 10 30l10-10a80 80 0 01 10 40" fill="#f5ab28"/><path d="M4560 3820a460 460 0 01 90 70q-30 0-50-20a190 190 0 01-30 50q-30-20-60 0a40 40 0 00-10-20q-20 0 0 10-30 0-50 30l-30-20v30a40 40 0 01-20-20q-50 30-110 10-70 40-150 40l-10 10q30 30-10 40-140 10-240 60a120 120 0 00-30-10q-30 30-70 40-40-50-50 10l-10-10q-30 50-80 20a180 180 0 01-40 50l20 10q-20 0-20 20a580 580 0 01-90-90h70q20-50 60-10 40-40 90-60l40 10q10-40 40-10a110 110 0 00 40-20h60l30-40 20 10 20-30 10 10 30-40q20 30 50 0 90 20 180-30 30-10 60 10 30-20 20-40 20-20 50 0 0-80 50-20 20-20 50-20l70 10q-10-30 10-40" fill="#f49f27"/><path d="M4430 3710a580 580 0 01 100 80q-30 10-30 50-40-10-20-40a150 150 0 01-50-10q-50 50-120 60l-20-20-20 40-10-20a4190 4190 0 01-70 40q-30 20-60 0-140 70-290 70-70 50-150 30-10 50-60 70-50-40-90 10-50-20-90-10l-10-30q10-30 20 10a660 660 0 01 110-40q-30-20 0-20 30 30 70-10 20 10 50-10 20 10 40-10h70a110 110 0 00 30-30q60 0 110-40a40 40 0 00 20 20q50-40 120-40l-10-10q60 0 110-30 30-10 70 10 40-40 110-70h60l10-50" fill="#f49224"/><path d="M4720 3950a860 860 0 01 140 110q-50 0-70-30a570 570 0 01-60 0q-40 0-50 40a40 40 0 01-20-20h-40a70 70 0 00-20 30q-30-50-50 10-20-20-40-10v30a2460 2460 0 01-180 50l-10-10a70 70 0 01-20 20q-60-20-110 10a40 40 0 00-20-10 200 200 0 01-40 30l-50-10-20 30a620 620 0 00-80 0l-20 50-20-40-10 30-10-10q-20 30-50 20-50 0-90 40-10-20-30-20a190 190 0 01-60 10q-30 0-30-20a730 730 0 00 60-20 40 40 0 01 20 10 330 330 0 00 120-70q50-10 90-40h40q20 30 20-10l50 10 80-40 10 20a70 70 0 00 10-30l40 10a70 70 0 00 30-30q40 40 30-10 20-10 40 10a150 150 0 00 40-30 40 40 0 01 10 20 150 150 0 00 60-30l50 10q40-30 90-30a630 630 0 01 70-40 60 60 0 00 30 10h50q40-20 20-50" fill="#f6b22a"/><path d="M4530 3790a70 70 0 01 30 30q-20 10-10 40a1000 1000 0 00-70-10q-30 0-50 20-50-60-50 20-30-20-50 0 10 20-20 40-30-20-60-10-90 50-180 30-30 30-50 0l-30 40-10-10-20 30a40 40 0 01-20-10l-30 40h-60a110 110 0 01-40 20q-30-30-40 10l-40-10a1870 1870 0 00-90 60q-40-40-60 10h-70l-70-70h10q40-10 90 10 40-50 90-10 50-20 60-70 80 20 150-30 150 0 290-70 30 20 60 0a4190 4190 0 00 70-40l10 20 20-40 20 20q70-10 120-60a150 150 0 00 50 10q-20 30 20 40 0-40 30-50" fill="#f49826"/><path d="m4860 4060 20 20q-50-10-80 20l-40-30a40 40 0 01-10 20 550 550 0 00-100 40l-10-20-70 40h-70a210 210 0 01-60 30q-30-20-50-10l-50 30q10 30-20 10a410 410 0 00-130 40l-20-10a130 130 0 01-40 30 50 50 0 01-30-10 70 70 0 01-20 30q-30-20-60 0a40 40 0 01-20-20q-10 20-30 20l-70 10-10 30-50-10q-20 20-20 50-30-30-40 10-10-30-40-30l-50-50a190 190 0 00 60-10q20 0 30 20 40-40 90-40 30 10 50-20l10 10 10-30 20 40 20-50a620 620 0 01 80 0l20-30 50 10a200 200 0 00 40-30 40 40 0 01 20 10q50-30 110-10a70 70 0 00 20-20l10 10a2460 2460 0 00 180-50v-30q20-10 40 10 20-60 50-10a70 70 0 01 20-30h40a40 40 0 00 20 20q10-40 50-40a570 570 0 00 60 0q20 30 70 30" fill="#f6b82b"/><path d="M4880 4080q0 30 30 50l-50 30q-10-20-30 0l-20-30h-40q20 20-10 30-30-10 0-20-30-20-50-10l-20 60a350 350 0 01-60-10q-40 0-60 30h-60a300 300 0 01-50 30l-10-10q-40 10-70 40-70-20-130 20-130-10-230 70a40 40 0 01-20-10q-50 30-90 0a70 70 0 00-20 30q-30-20-60 0v30q-30-30-50-20l-40-40q30 0 40 30 10-40 40-10 0-30 20-50l50 10 10-30 70-10q20 0 30-20a40 40 0 00 20 20q30-20 60 0a70 70 0 00 20-30 50 50 0 00 30 10 130 130 0 00 40-30l20 10a410 410 0 01 130-40q30 20 20-10l50-30q20-10 50 10a210 210 0 00 60-30h70l70-40 10 20a550 550 0 01 100-40 40 40 0 00 10-20l40 30q30-30 80-20" fill="#f7be2b"/><path d="M4880 4080a480 480 0 00 100 60l20 30q-20-10-30 10l-20-20q-60 10-100 50l-20-30q-50 40-100 20a150 150 0 01-40 10 210 210 0 00-10 30 40 40 0 01-20-20l-50 40a40 40 0 00-20-10 8770 8770 0 00-130 50q-70-20-130 30a1380 1380 0 00-180 60q-20-40-30 0a40 40 0 00-10-20 330 330 0 01-60 30q30 10 0 30-30-40-60-30 10 20-10 40-30-20-40 20a70 70 0 00-20-30q-10 20-30 20 50 20 20 50a1030 1030 0 01-130-110q20-10 50 20v-30q30-20 60 0a70 70 0 01 20-30q40 30 90 0l20 10q100-80 230-70 60-40 130-20 30-30 70-40l10 10a300 300 0 00 50-30h60q20-30 60-30l60 10 20-60q20-10 50 10-30 10 0 20 30-10 10-30h40l20 30q20-20 30 0l50-30q-30-20-30-50" fill="#f7c42c"/><path d="M5080 4230a410 410 0 01 100 70h-10a760 760 0 01-100-50l-40 20v20a70 70 0 00-40-10q0 70-30 10 0 20-20 10a140 140 0 00-40 30q-20-20-30 20l-20-20q-40 20-70 10a70 70 0 00-20 30h-70l-10 20-60-10q-20 20-30 10a770 770 0 01-110 10l-10 10 40 10a750 750 0 01-90 20q-20 0-30 20-30-20-60 0l10 10-30 30-20-30a130 130 0 01-40 30 50 50 0 01-30-10 1660 1660 0 00-80 50q-50-30-40 20l-20-30a290 290 0 01-40 10q40 10 30 40h-60q-40-20-60-50 30 0 60-30-20-20 10-30l10 10q20-60 50-10l60-30q30 30 60-10a40 40 0 01 10 10 130 130 0 01 50-30h50l10-30h120a370 370 0 00 40-20q30 10 10-20 20-10 40 20a90 90 0 01 30-30h60v-30q10-10 30 10 40-40 80-20l110-40 20 20a510 510 0 01 60-40q20 50 40 0a1320 1320 0 00 70-30v30" fill="#f8d129"/><path d="M5170 4300a80 80 0 01-10 40q-40-10-70 20l-20-20-100 40-10-20q-40 10-60 40-20-10 0-20h-40q-50 40 20 30-30 30-50 10a40 40 0 01-10 20 100 100 0 01-20-40l-20 40-10-20q20-60-30-10 10 30-20 10a100 100 0 00-20 40l-100-10a110 110 0 00-30 20 630 630 0 00-110 20 40 40 0 00 20 10q-40 10-60-10a110 110 0 01-30 10v40q-50-70-90 10h-40l-30 10 10 10q-50 40-30 90l-50 40-40-20-110-100h60q10-30-30-40a290 290 0 00 40-10l20 30q-10-50 40-20a1660 1660 0 01 80-50 50 50 0 00 30 10 130 130 0 00 40-30l20 30 30-30-10-10q30-20 60 0 10-20 30-20a750 750 0 00 90-20l-40-10 10-10a770 770 0 00 110-10q10 10 30-10l60 10 10-20h70a70 70 0 01 20-30q30 10 70-10l20 20q10-40 30-20a140 140 0 01 40-30q20 10 20-10 30 60 30-10a70 70 0 01 40 10v-20l40-20a760 760 0 00 100 50" fill="#f8d728"/><path d="M5000 4170a360 360 0 01 80 60h-50v-30a1320 1320 0 01-70 30q-20 50-40 0a510 510 0 00-60 40l-20-20-110 40q-40-20-80 20-20-20-30-10v30h-60a90 90 0 00-30 30q-20-30-40-20 20 30-10 20a370 370 0 01-40 20h-120l-10 30h-50a130 130 0 00-50 30 40 40 0 00-10-10q-30 40-60 10l-60 30q-30-50-50 10l-10-10q-30 10-10 30-30 30-60 30l-40-30q30-30-20-50 20 0 30-20a70 70 0 01 20 30q10-40 40-20 20-20 10-40 30-10 60 30 30-20 0-30a330 330 0 00 60-30 40 40 0 01 10 20q10-40 30 0a1380 1380 0 01 180-60q60-50 130-30a8770 8770 0 01 130-50 40 40 0 01 20 10l50-40a40 40 0 00 20 20l10-30a150 150 0 00 40-10q50 20 100-20l20 30q40-40 100-50l20 20q10-20 30-10" fill="#f7cb2a"/><path d="M5170 4300h10a610 610 0 01 120 90 80 80 0 01-40-10q-110-100-130 50-30-10-50 20-40-50-50 10-30-20-50 10l-50-10q10 20-10 40-40-30-60 20-40-30-80 0-20-20-30 0 20 10 0 20h-90q-20 10 0 30l-20 10a9350 9350 0 00-80-10q30-10 0-10l-30 40-50-20q-10 40-30 10a40 40 0 01-10 10q-20 20-20 50-30-40-60-40a70 70 0 00-20 30q-20-20-30 0a40 40 0 00 10 10q-30 10-40 50a100 100 0 00-10-40q-30 0-10 20a50 50 0 01-30 10v30a540 540 0 00-70-20l50-40q-20-50 30-90l-10-10 30-10h40q40-80 90-10v-40a110 110 0 00 30-10q20 20 60 10a40 40 0 01-20-10 630 630 0 01 110-20 110 110 0 01 30-20l100 10a100 100 0 01 20-40q30 20 20-10 50-50 30 10l10 20 20-40a100 100 0 00 20 40 40 40 0 00 10-20q20 20 50-10-70 10-20-30h40q-20 10 0 20 20-30 60-40l10 20 100-40 20 20q30-30 70-20a80 80 0 00 10-40" fill="#f9dd25"/><path d="M5300 4390q20 40 70 80a470 470 0 00-110 50l-20-10-190 40a50 50 0 01-30-10 42760 42760 0 00-220 80 110 110 0 01-30-10q-40 30-80 20a50 50 0 00 0 30 25700 25700 0 00-250 30l-80 40q-30-30-40 10a180 180 0 01-40-20l-30 10-20-10v-30a50 50 0 00 30-10q-20-20 10-20a100 100 0 01 10 40q10-40 40-50a40 40 0 01-10-10q10-20 30 0a70 70 0 01 20-30q30 0 60 40 0-30 20-50a40 40 0 00 10-10q20 30 30-10l50 20 30-40q30 0 0 10l80 10 20-10q-20-20 0-30h90q20-10 0-20 10-20 30 0 40-30 80 0 20-50 60-20 20-20 10-40l50 10q20-30 50-10 10-60 50-10 20-30 50-20 20-150 130-50a80 80 0 00 40 10" fill="#f8e122"/><path d="m5300 4390 80 50a140 140 0 00 10 30 170 170 0 00-20 70h-80q-40 0-30 40a120 120 0 01-60-10q-50 30-110 30-20 20-30 10l-10 20q-30-20-50-10-20 40-40 0-10 10 10 20-70 40-140 30a300 300 0 00-50 30l-50-10q-20 40-60 60l-10-20-50 30h-250q0 20-30 40-30-50-80-70l30-10a180 180 0 00 40 20q10-40 40-10l80-40a25700 25700 0 01 250-30 50 50 0 01 0-30q40 10 80-20a110 110 0 00 30 10 42760 42760 0 01 220-80 50 50 0 00 30 10l190-40 20 10a470 470 0 01 110-50q-50-40-70-80" fill="#ecdd29"/><path d="M5590 4600a190 190 0 01 60 40q-10 30 30 50a110 110 0 00-30 30l-80-10q-30 0 0 10h-40q-20 30-50 20-30 0-60 30a40 40 0 00-20-10q-90 10-170 50l-10-10q10 50-30 10a40 40 0 00-20 20q-30-10-60 20-20-20-20 10a40 40 0 00-20-10 260 260 0 01-70 30q-50-20-100 0a4560 4560 0 00-40 30q-20-40-30 0l-40-10-50 30a50 50 0 00-20-10 560 560 0 00-170 40 190 190 0 00-60-10 360 360 0 01-80-60 90 90 0 01 50 10l10-30 70 20q20-30 60-20a50 50 0 00 0 30l220-40 40 10q30-30 60-10 20-20 10-30h80q-20-50 10 0a470 470 0 01 60-40l10 20a1510 1510 0 00 140-60 270 270 0 00 60-10l10 10q10-30 30-10 10-50 30-10a6780 6780 0 01 140-30q10-30 30 0a150 150 0 00 40-50q10 10 30-10-20-20-10-40" fill="#ccd134"/><path d="m5410 4460 130 100a520 520 0 00 10 70 7500 7500 0 00-150-10q-60 10-60 70l-20-30q-20 20-40 0-40 30-80 20-20 30-50 20a4850 4850 0 00-90 40q-20-30-40-20a1980 1980 0 01-110 40q-20-20-40-10 30 10 0 20-50-20-80 20a40 40 0 00-10-10 270 270 0 01-90 30l-10-10-30 30a1080 1080 0 00-90 0 1720 1720 0 00-140 50q-10-30-30-10l-60-40 60 20 40-30h30l10 20a150 150 0 01 40-40h100q10-60 20 0a70 70 0 00 20-30q20 10 30-10 30 10 70-20a110 110 0 00 10-30l20 10q60-50 140-20 70-50 140-60 40 30 70-10 30-20 60 0 30-60 80-20 50-40 110-60a180 180 0 01 30 20 110 110 0 01 40-50l-40-10a130 130 0 01 0-50" fill="#e0d82e"/><path d="m5380 4440 30 20a130 130 0 00 0 50l40 10a110 110 0 00-40 50 180 180 0 00-30-20q-60 20-110 60-50-40-80 20-30-20-60 0-30 40-70 10-70 10-140 60-80-30-140 20a40 40 0 01-20-10 110 110 0 01-10 30q-40 30-70 20-10 20-30 10a70 70 0 01-20 30q-10-60-20 0h-100a150 150 0 00-40 40l-10-20h-30l-40 30-60-20a1640 1640 0 01-170-130 540 540 0 01 70 20l20 10q50 20 80 70 30-20 30-40h250l50-30 10 20q40-20 60-60l50 10a300 300 0 01 50-30q70 10 140-30-20-10-10-20 20 40 40 0 20-10 50 10l10-20q10 10 30-10 60 0 110-30a120 120 0 00 60 10q-10-40 30-40h80a170 170 0 01 20-70 140 140 0 01-10-30" fill="#e6da2e"/><path d="M5540 4560q30 0 50 40-10 20 10 40-20 20-30 10a150 150 0 01-40 50q-20-30-30 0a6780 6780 0 00-140 30q-20-40-30 10-20-20-30 10l-10-10a270 270 0 01-60 10 1510 1510 0 01-140 60l-10-20a470 470 0 00-60 40q-30-50-10 0h-80q10 10-10 30-30-20-60 10l-40-10-220 40a50 50 0 01 0-30q-40-10-60 20a1680 1680 0 00-70-20l-10 30a90 90 0 00-50-10h-10l-10-20q20-20 30 10a1720 1720 0 01 140-50h90l30-30 10 10a270 270 0 00 90-30 40 40 0 01 10 10q30-40 80-20 30-10 0-20 20-10 40 10a1980 1980 0 00 110-40q20-10 40 20a4850 4850 0 01 90-40q30 10 50-20 40 10 80-20 20 20 40 0l20 30q0-60 60-70l150 10a520 520 0 01-10-70" fill="#d3d431"/><path d="m5810 4750 20 20q-20 30 20 60-10 30-20 0-50 40-110 30a790 790 0 00-50 40l-20-10q-50 0-80 30a40 40 0 00-10-10 360 360 0 00-70 40l-10-20q-30 20-60 10-10 30-30 10a220 220 0 00-60 40q-50-10-90 30a2110 2110 0 00-110 0 490 490 0 00-70 40l-10-20q-40 20-70 10a480 480 0 01-110 20l-40 30q-30-20-60 0-40-20 0-30a200 200 0 01-60-10q-30 10-50-10a1380 1380 0 01 80-30l20 20a320 320 0 00 50-30h100q0-30 20-10l90-30 10 10a870 870 0 01 70-40 700 700 0 01 90 0q60-50 130-20 30-50 70-30a150 150 0 01 60-30 570 570 0 00 70 0 110 110 0 00 40-30q40 10 80-10 30 10 70-10-20-20 10 0a100 100 0 01 30-20l-10-10 50-10 20-20" fill="#afcb39"/><path d="m5650 4640 160 110-20 20-50 10 10 10a100 100 0 00-30 20q-30-20-10 0-40 20-70 10-40 20-80 10a110 110 0 01-40 30 570 570 0 01-70 0 150 150 0 00-60 30q-40-20-70 30-70-30-130 20a700 700 0 00-90 0 870 870 0 00-70 40l-10-10-90 30q-20-20-20 10h-100a320 320 0 01-50 30l-20-20a1380 1380 0 00-80 30l-10 10-160-100v-10l60 10a560 560 0 01 170-40 50 50 0 01 20 10l50-30 40 10q10-40 30 0l40-30q50-20 100 0a260 260 0 00 70-30 40 40 0 01 20 10q0-30 20-10 30-30 60-20a40 40 0 01 20-20q40 40 30-10l10 10q80-40 170-50a40 40 0 01 20 10q30-30 60-30 30 10 50-20h40q-30-10 0-10l80 10a110 110 0 01 30-30q-40-20-30-50" fill="#bece36"/><path d="M5830 4770a640 640 0 01 90 60q-20-10-30 10l-10 40a40 40 0 00-20-10q-40 30-90 30l-40 50q-50-20-80 30l-20-20a3180 3180 0 01-240 80q-20-20-40-10l-220 80q-40-20-60 20-60-30-110 10l-50-10q-40 30-70 10-10 50-40 10l-10 10a1040 1040 0 01-140-100l10-10q20 20 50 10a200 200 0 00 60 10q-40 10 0 30 30-20 60 0l40-30a480 480 0 00 110-20q30 10 70-10l10 20a490 490 0 01 70-40h110q40-40 90-30a220 220 0 01 60-40q20 20 30-10 30 10 60-10l10 20a360 360 0 01 70-40 40 40 0 01 10 10q30-30 80-30l20 10a790 790 0 01 50-40q60 10 110-30 10 30 20 0-40-30-20-60" fill="#a4c83d"/><path d="M5920 4830a470 470 0 01 90 70q-10 30-50 50l-10-10-50 50-20-10q-50 10-90 40h-70l-10 20-30-10a860 860 0 00-100 40l-40-10a50 50 0 00 0 30 520 520 0 01-70-10q0 40-30 20a90 90 0 00-20 20q-100-20-180 50-70-20-140 30a80 80 0 00-30-10l-60 20q-90-20-160 0a170 170 0 01-60-50l10-10q30 40 40-10 30 20 70-10l50 10q50-40 110-10 20-40 60-20l220-80q20-10 40 10a3180 3180 0 00 240-80l20 20q30-50 80-30l40-50q50 0 90-30a40 40 0 01 20 10l10-40q10-20 30-10" fill="#98c640"/><path d="M6110 4980q20 0 40 30-20 10-20 30-10-60-50-10-20 10 0 20a7020 7020 0 00-100 40 40 40 0 01-20-10 260 260 0 01-40 40q-30-50-40 10-70-20-130 40-30-30-40 10l-30-10a15830 15830 0 00-80 40q-20-20-40 0l20 10h-60q-20 0-30 20l-10-10a80 80 0 00 0 40l-50-20-70 20v30l-30-30a200 200 0 00-60 40q-20-20-10-30l-120 50q-40-20-70-10-20 0-30 30l-30-20 10-20q-30-10-20-30a1310 1310 0 01 150-40l10-10h120q30-10 10-20a190 190 0 00 70-20h50a800 800 0 01 60-40v40q30-50 70-30 20-40 50-10 50-40 120-40-10-20 10-30l40 10a385560 385560 0 01 350-110" fill="#7bbf43"/><path d="M6150 5010a5800 5800 0 01 60 50q-20 10-30-10a260 260 0 01-60 70q-50-50-30 10-30 0-50 30a620 620 0 01-70 0 400 400 0 01-70 40 60 60 0 01-30-10 130 130 0 01-50 30h-60a2250 2250 0 00-230 70l-10-10-90 60a180 180 0 00-30-20q-50 60-90 0-30 20-60 10l-80 20a70 70 0 00-40 30q-30-40-50 0l-40-30q10-30 30-30 30-10 70 10l120-50q-10 10 10 30a200 200 0 01 60-40l30 30v-30l70-20 50 20a80 80 0 01 0-40l10 10q10-20 30-20h60l-20-10q20-20 40 0a15830 15830 0 01 80-40l30 10q10-40 40-10 60-60 130-40 10-60 40-10a260 260 0 00 40-40 40 40 0 00 20 10 7020 7020 0 01 100-40q-20-10 0-20 40-50 50 10 0-20 20-30" fill="#70bd45"/><path d="M6010 4900a590 590 0 01 100 80 385560 385560 0 00-350 110 350 350 0 00-40-10q-20 10-10 30-70 0-120 40-30-30-50 10-40-20-70 30v-40a800 800 0 00-60 40h-50a190 190 0 01-70 20q20 10-10 20h-120l-10 10a1310 1310 0 00-150 40q-10 20 20 30l-10 20a49380 49380 0 01-160-120q70-20 160 0l60-20a80 80 0 01 30 10q70-50 140-30 80-70 180-50a90 90 0 01 20-20q30 20 30-20l70 10a50 50 0 01 0-30l40 10a860 860 0 01 100-40l30 10 10-20h70q40-30 90-40l20 10 50-50 10 10q40-20 50-50" fill="#8ac241"/><path d="M6230 5080a1020 1020 0 01 130 110h-30l-120 60-10-20-40 40q-60-20-10 20h-40a250 250 0 01-60 30 560 560 0 00-90-10 210 210 0 00-50 30l-20-10a570 570 0 00-70 30l-30-10q-60 30-110 30-30 40-50 10a70 70 0 01-20 30h-70l-70 40q-20-40-40 10a40 40 0 00-10-10l-80 20q-40 20-80 0-20 0-10 20a310 310 0 00 60 40v20a1060 1060 0 01-110-80q30-40 80-50 0-40 30-20a380 380 0 01 120-60q30 10 60-10a270 270 0 01 50 20l10-40 100-20a40 40 0 01 10 10 160 160 0 01 60-40q110-10 210-60a1300 1300 0 00 210-50l80 10q60-20 0-40 30-20 10-50" fill="#5ab947"/><path d="m6210 5060 20 20q20 30-10 50 60 20 0 40l-80-10a1300 1300 0 01-210 50q-100 50-210 60a160 160 0 00-60 40 40 40 0 00-10-10 200 200 0 01-100 20l-10 40a270 270 0 00-50-20q-30 20-60 10a380 380 0 00-120 60q-30-20-30 20-50 10-80 50a870 870 0 01-120-100q20-40 50 0a70 70 0 01 40-30l80-20q30 10 60-10 40 60 90 0a180 180 0 01 30 20l90-60 10 10a2250 2250 0 01 230-70h60a130 130 0 00 50-30 60 60 0 00 30 10 400 400 0 00 70-40h70q20-30 50-30-20-60 30-10a260 260 0 00 60-70q10 20 30 10" fill="#67ba47"/><path d="m6360 5190 30 10 30 40a150 150 0 00-40 30 40 40 0 00-10-20h-30l-30 40a70 70 0 00-10-30q-40 50-90 80a260 260 0 00-50-40 290 290 0 00-50 40q-30-20-50-10-40 30-90 40v30a200 200 0 01-50-10 2190 2190 0 01-250 70v40l-50-20-100 40h-60a100 100 0 00-30 30q-10-40-20 0-20-20-30 0a6050 6050 0 01-40-30q-20 0-30 20a310 310 0 01-60-40q-10-20 10-20 40 20 80 0l80-20a40 40 0 01 10 10q20-50 40-10l70-40h70a70 70 0 00 20-30q20 30 50-10 50 0 110-30l30 10a570 570 0 01 70-30l20 10a210 210 0 01 50-30l90 10a250 250 0 00 60-30h40q-50-40 10-20l40-40 10 20 120-60h30" fill="#4ab649"/><path d="m6460 5340-60 30-10-10q-10 30-40 20v30a510 510 0 01-60-40v40a70 70 0 01-30-20q-20 40-40 10-30 30-50 10-30 50-50 0l20 50-10 10q-30-20-30-40l-70 50a40 40 0 01-20-20 340 340 0 01-60 50q-50-50-40 10-20-20-30-10v30l-40-40q-60 60-140 90l-10 40q-30-20-50 0-10-30-30-20-10 50-30 0-40 20-50 70-40-10-50 30a1520 1520 0 01-130-110h50a50 50 0 00 0 30q20-40 70-30v-30a250 250 0 00 70-20l10 20 30-30a40 40 0 01 10 10 70 70 0 01 20-30h80l20-30 10 10a70 70 0 01 20-30 320 320 0 00 40 30 150 150 0 01 40-30q40 20 90-10a40 40 0 00-20-20 200 200 0 00 80-20l10-30h130l30-30a570 570 0 00 60-10l20 20q30-60 80-10l30-30 60-20q20 20 30 0l10 30q10-20 30 0" fill="#3bb34f"/><path d="m6640 5450 40 40h-40q-40 0-70-20l-20 10v-30q-20 0-30 30-40-70-30 10h-30q-10 40-40 10-20 20-40 0-40 0-80 40a6050 6050 0 01-40-30q-30 20-50-10a40 40 0 01-10 20h-50a1020 1020 0 01-80 70q-30-30-50 10h-110v30h-30a50 50 0 00-10-30 200 200 0 01-40 60 270 270 0 01-40-20 90 90 0 01-50 10q-10-20-20 0-20-20 0-30a40 40 0 01 10 10 70 70 0 01 30-30q10 20 20 0a70 70 0 00 20 30q-10-20 10-40h30q-30-60 20-10l90-40q-20-10-10-20l40 20a70 70 0 01 30-20 410 410 0 00 50 0q20-60 50 0 20-30 60-40a40 40 0 01 10 10l20-40q10 20 40 20 0-60 20 0a90 90 0 00 30-30h90q-10-50 20-20l-10 10q20 0 30-20a70 70 0 00 20 30l40-60h30v30a380 380 0 00 130 40" fill="#38b35b"/><path d="m6570 5380 70 70a380 380 0 01-130-40v-30h-30l-40 60a70 70 0 01-20-30q-10 20-30 20l10-10q-30-30-20 20h-90a90 90 0 01-30 30q-20-60-20 0-30 0-40-20l-20 40a40 40 0 00-10-10q-40 10-60 40-30-60-50 0a410 410 0 01-50 0 70 70 0 00-30 20l-40-20q-10 10 10 20l-90 40q-50-50-20 10h-30q-20 20-10 40a70 70 0 01-20-30q-10 20-20 0a70 70 0 00-30 30 40 40 0 00-10-10q-20 10 0 30 10-20 20 0l-10 20q-30 0-50 30l-40-40h-40q-20 30-60 50-20-20-10-30 10-50 50-70 20 50 30 0 20-10 30 20 20-20 50 0l10-40q80-30 140-90l40 40v-30q10-10 30 10-10-60 40-10a340 340 0 00 60-50 40 40 0 00 20 20l70-50q0 20 30 40l10-10-20-50q20 50 50 0 20 20 50-10 20 30 40-10a70 70 0 00 30 20v-40a510 510 0 00 60 40v-30q30 10 40-20l10 10 60-30q20-20 50-10 20 30 60 50" fill="#38b254"/><path d="M6420 5240a750 750 0 01 150 140q-40-20-60-50-30-10-50 10-20-20-30 0l-10-30q-10 20-30 0l-60 20-30 30q-50-50-80 10l-20-20a570 570 0 01-60 10l-30 30h-130l-10 30a200 200 0 01-80 20 40 40 0 01 20 20q-50 30-90 10a150 150 0 00-40 30 320 320 0 01-40-30 70 70 0 00-20 30l-10-10-20 30h-80a70 70 0 00-20 30 40 40 0 00-10-10l-30 30-10-20a250 250 0 01-70 20v30q-50-10-70 30a50 50 0 01 0-30h-50l-40-40v-20q10-20 30-20a6050 6050 0 00 40 30q10-20 30 0 10-40 20 0a100 100 0 01 30-30h60l100-40 50 20v-40a2190 2190 0 00 250-70l50 10v-30q50-10 90-40 20-10 50 10a290 290 0 01 50-40 260 260 0 01 50 40q50-30 90-80a70 70 0 01 10 30l30-40h30a40 40 0 01 10 20 150 150 0 01 40-30" fill="#40b44a"/><path d="M6640 5490h40l50 50-60-30q-70 10-20 50-40 10-70 50-50-20-90 30l-30-20q-30 50-60 0a860 860 0 01-80 70q-20-40-40 0a110 110 0 01-40-20l-10 40h-80a400 400 0 01-70 30 110 110 0 00-20 40q-30-30-60-20-50 10-90 50-30-40-50 10a40 40 0 00-10-20 150 150 0 00-40 30 40 40 0 00-10-10l-110 30-10 30a270 270 0 01-90-80q20-10 40 20 0-40 30-10a100 100 0 00 10-40q30 30 40-20 70 10 130-30a40 40 0 00 20 10 340 340 0 01 80-30q-20-20 0-20a5660 5660 0 01 40 30 50 50 0 00 10-30l110-20q-10-60 30-10l40-20 10 20v-40l30 20a170 170 0 00 60-50q10 30 20 0l20 10a720 720 0 01 80-60l30 20a200 200 0 00 50-30h60q0-60 30-10 20-20 50 0l30-20" fill="#38b26f"/><path d="m6640 5490-30 20q-30-20-50 0-30-50-30 10h-60a200 200 0 01-50 30l-30-20a720 720 0 00-80 60 40 40 0 01-20-10q-10 30-20 0a170 170 0 01-60 50l-30-20v40l-10-20-40 20q-40-50-30 10l-110 20a50 50 0 01-10 30 5660 5660 0 00-40-30q-20 0 0 20a340 340 0 00-80 30 40 40 0 01-20-10q-60 40-130 30-10 50-40 20a100 100 0 01-10 40q-30-30-30 10-20-30-40-20a34520 34520 0 00-110-80v-10q10-40 50-30-10 10 10 30 40-20 60-50h40l40 40q20-30 50-30l10-20a90 90 0 00 50-10 270 270 0 00 40 20 200 200 0 00 40-60l10 30h30v-30h110q20-40 50-10a1020 1020 0 00 80-70h50a40 40 0 00 10-20q20 30 50 10a6050 6050 0 00 40 30q40-40 80-40 20 20 40 0 30 30 40-10h30q-10-80 30-10 10-30 30-30v30a120 120 0 01 20-10q30 20 70 20" fill="#38b262"/><path d="M6820 5640q20 0 20 30a660 660 0 01-80 60q-20-50-50-10l-20-20a200 200 0 00-40 30h-40q-10 30-30 10-30 0-40 20-70-20-110 50l-10-10a490 490 0 01-70 40q-60-10-110 30-70-10-120 40-30-50-50 10l-20-20-40 40-20-20q-30 0-20 30-80-20-140 30l-20-20v40a93600 93600 0 00-110-100l40-20a40 40 0 01 10 10 70 70 0 01 30-30l60 30 100-40a40 40 0 00 20 20 130 130 0 01 40-30h110a150 150 0 01 40-30 40 40 0 01 10 20 650 650 0 00 70-40l20 20q20-30 60-20 10-70 60-30l20-30q20 10 40-10a40 40 0 01 10 20l80-60q20-20 50 0a490 490 0 00 80-50q20 50 50 10l60 20q30-30 60-20" fill="#35af86"/><path d="M6730 5540a67080 67080 0 00 90 100q-30-10-60 20l-60-20q-30 40-50-10a490 490 0 01-80 50q-30-20-50 0l-80 60a40 40 0 00-10-20q-20 20-40 10l-20 30q-50-40-60 30-40-10-60 20l-20-20a650 650 0 01-70 40 40 40 0 00-10-20 150 150 0 00-40 30h-110a130 130 0 00-40 30 40 40 0 01-20-20l-100 40-60-30a70 70 0 00-30 30 40 40 0 00-10-10l-40 20-20-20 10-30 110-30a40 40 0 01 10 10 150 150 0 01 40-30 40 40 0 01 10 20q20-50 50-10 40-40 90-50 30-10 60 20a110 110 0 01 20-40 400 400 0 00 70-30h80l10-40a110 110 0 00 40 20q20-40 40 0a860 860 0 00 80-70q30 50 60 0l30 20q40-50 90-30 30-40 70-50-50-40 20-50l60 30" fill="#36b07a"/><path d="m6840 5670 50 40 20 40-50-20a230 230 0 00-50 20l-20-20q-20 40-50 10a210 210 0 01-60 60 620 620 0 00-130 40q-60-30-110 30l-10-20a630 630 0 00-50 30h-120q-40 10-60 50-40-20-70 0a990 990 0 00-140 50 50 50 0 00-20-10 210 210 0 01-80 30 130 130 0 01-40-10v50l-30-20-10-20v-40l20 20q60-50 140-30-10-30 20-30l20 20 40-40 20 20q20-60 50-10 50-50 120-40 50-40 110-30a490 490 0 00 70-40l10 10q40-70 110-50 10-20 40-20 20 20 30-10h40a200 200 0 01 40-30l20 20q30-40 50 10a660 660 0 00 80-60" fill="#33ae91"/><path d="M6960 5820a170 170 0 01 50 60q-40-10-50-30-20 20-10 40a1120 1120 0 00-90-10q-40 0-70 30a40 40 0 01-20-10q-50 20-110 20 10 30-20 10-20 40-70 50l-10-10a1480 1480 0 00-100 40 40 40 0 00-10-10l-10 20a570 570 0 01-70 0 330 330 0 00-90 60q-20-40-50 0l-10-20q-20 20-40 0a70 70 0 01-10 30q-80-30-130 40l-20-20a80 80 0 01-40 20l10 40-80-80q-10-40 20-50h110q40-10 60-40 20 40 40 0l30 20a5660 5660 0 01 50-30l20 10a180 180 0 01 60-30l20 20 60-40 30 10 20-20h30q30-20 40-50a70 70 0 00 20 30q20-30 60-40h130a3170 3170 0 00 140-50 40 40 0 00 20 10q40-20 90-20" fill="#2ca9a8"/><path d="M6910 5750a260 260 0 01 50 70q-50 0-90 20a40 40 0 01-20-10 3170 3170 0 01-140 50 1910 1910 0 00-130 0q-40 10-60 40a70 70 0 01-20-30q-10 30-40 50h-30l-20 20-30-10-60 40-20-20a180 180 0 00-60 30l-20-10a5660 5660 0 00-50 30l-30-20q-20 40-40 0-20 30-60 40h-110q-30 10-20 50l-60-50v-50l40 10a210 210 0 00 80-30 50 50 0 01 20 10 990 990 0 01 140-50q30-20 70 0 20-40 60-50h120a630 630 0 01 50-30l10 20q50-60 110-30a620 620 0 01 130-40 210 210 0 00 60-60q30 30 50-10l20 20a230 230 0 01 50-20l50 20" fill="#30ad9b"/><path d="m7010 5880 40 40v20q-50 0-70-50a280 280 0 01-60 60q-40-10-20-30h-30l10 10-60 60q-30-20-50-10-40 0-70 30a40 40 0 00-10-20 110 110 0 01-30 20q-100 10-170 80-40-60-50 0-50 20-90 10l-100 40-20-10q-90 50-180 30-30 10-30 40a70 70 0 01-30-30l-10-40a80 80 0 00 40-20l20 20q50-70 130-40a70 70 0 00 10-30q20 20 40 0l10 20q30-40 50 0a330 330 0 01 90-60 570 570 0 00 70 0l10-20a40 40 0 01 10 10 1480 1480 0 01 100-40l10 10q50-10 70-50 30 20 20-10 60 0 110-20a40 40 0 00 20 10 260 260 0 01 70-30l90 10q-10-20 10-40 10 20 50 30" fill="#28a5b3"/><path d="M7050 5940q20 0 20 30h-140a670 670 0 01-170 70q-30-30-60 10-40-20-90 0-30 10-10 30l-110 40-10-10q-110 50-220 50a100 100 0 00-50 30 70 70 0 01-30-20 170 170 0 01-40 40h-70v40l-50-50q0-30 30-40 90 20 180-30l20 10 100-40q40 10 90-10 10-60 50 0 70-70 170-80a110 110 0 00 30-20 40 40 0 01 10 20q30-30 70-30 20-10 50 10l60-60-10-10h30q-20 20 20 30a280 280 0 00 60-60q20 50 70 50" fill="#25a0bd"/><path d="M7070 5970q20 0 20 30a110 110 0 00-30-10 960 960 0 01-50 30q-30-20-50-10 0 50-30 20-20 60-60 20-50 10-70 60l-50-10q-50 30-110 20l-30 30q-10-20-30 0l-10-20a550 550 0 01-80 40 370 370 0 01-50-20q-20 40-40 10a300 300 0 01-70 30q-10-40-30 0-50-10-80 30a40 40 0 00-10-10 1050 1050 0 01-80 40q-20 30 0 70a440 440 0 01-60-70v-40h70a170 170 0 00 40-40 70 70 0 00 30 20 100 100 0 01 50-30q110 0 220-50l10 10 110-40q-20-20 10-30 50-20 90 0 30-40 60-10a670 670 0 00 170-70h140" fill="#239dc4"/><path d="m7090 6000 30 50-20 10q-60-70-100 0-80 20-120 50a50 50 0 00-10-30l-30 30q-70 0-120 40a40 40 0 01-20-10 140 140 0 01-60 20l-10 40q-50-20-90 0l-30-20q-40 40-100 30-80 30-160 20l-50 50-40 10a450 450 0 00 10 70l-30-20-10-20q-20-40 0-70a1050 1050 0 00 80-40 40 40 0 01 10 10q30-40 80-30 20-40 30 0a300 300 0 00 70-30q20 30 40-10a370 370 0 00 50 20 550 550 0 00 80-40l10 20q20-20 30 0l30-30q60 10 110-20l50 10q20-50 70-60 40 40 60-20 30 30 30-20 20-10 50 10a960 960 0 00 50-30l30 10" fill="#2099cb"/><path d="m7120 6050 30 60q-20 0-30 20h-50q-10-40-20 0l-10-20-90 50q-50-20-90-10-60 0-70 30h-60l-80 50q-40-20-70 10-30-20-60 10a40 40 0 00-20-10l-20 30a1000 1000 0 01-80 10 290 290 0 01-80 50q-30-20-20 20h-50q-10 30-20-10a50 50 0 00-30 0 50 50 0 00 0 30l60 50-10 20-60-50-20-30a450 450 0 01-10-70l40-10 50-50q80 10 160-20 60 10 100-30l30 20q40-20 90 0l10-40a140 140 0 00 60-20 40 40 0 00 20 10q50-40 120-40l30-30 10 30q40-30 120-50 40-70 100 0l20-10" fill="#1d94d1"/><path d="M7150 6110q30 40 50 110-40-20-40 20a350 350 0 01-150 40l-10 30a550 550 0 00-110 0 870 870 0 00-90 40h-100q-20 40-60 30-20 0-30 20-30-20-50 10h-80l-20 20-120 30a80 80 0 01-40-10l40 60-10 20-20-10a260 260 0 00-50-70q20-60 100-80 30 10 50-20l30 10a40 40 0 01 20-20q60 10 110-20a40 40 0 00-10-20 770 770 0 00 110-10q30 20 30-20 90 0 170-30l10 10a960 960 0 00 50-30q30 10 50-10a40 40 0 00 20 10 270 270 0 01 100-30l20-60q10-20 30-20" fill="#1b7bc9"/><path d="m7120 6130-20 60a270 270 0 00-100 30 40 40 0 01-20-10q-20 20-50 10a960 960 0 01-50 30l-10-10q-80 30-170 30 0 40-30 20a770 770 0 01-110 10l10 20q-50 30-110 20a40 40 0 00-20 20l-30-10q-20 30-50 20-80 20-100 80l-10-10 10-20-60-50a50 50 0 01 0-30 50 50 0 01 30 0q10 40 20 10h50q-10-40 20-20a290 290 0 00 80-50l80-10 20-30a40 40 0 01 20 10q30-30 60-10 30-30 70-10l80-50h60q10-30 70-30 40-10 90 10l90-50 10 20q10-40 20 0h50" fill="#1b88cf"/><path d="m7220 6280 30 110-20-30-30 10v60l-110-10a3680 3680 0 00-210 70l-20-20q0 30-30 50a250 250 0 00-70-20v30q-120 20-220 80h-90a160 160 0 00-20 40 260 260 0 00-60-60 120 120 0 00-30-50 330 330 0 00 40-50l60 30q20-50 60-10a70 70 0 00 20-20 360 360 0 01 70 0q30-40 70-20a760 760 0 00 80-30l20 10 130-70 10 10a270 270 0 01 70-20q-20-20 10 0a750 750 0 00 140-50q20 10 30-10l40 10q0-30 30-40" fill="#1b62bc"/><path d="m7200 6220 20 60q-30 10-30 40l-40-10q-10 20-30 10a750 750 0 01-140 50q-30-20-10 0a270 270 0 00-70 20l-10-10-130 70a40 40 0 01-20-10 760 760 0 01-80 30q-40-20-70 20a360 360 0 00-70 0 70 70 0 01-20 20q-40-40-60 10l-60-30a330 330 0 01-40 50l-10-10 10-20-40-60a80 80 0 00 40 10l120-30 20-20h80q20-30 50-10 10-20 30-20 40 10 60-30h100a870 870 0 01 90-40 550 550 0 01 110 0l10-30a350 350 0 00 150-40q0-40 40-20" fill="#1a6fc3"/><path d="M7250 6390a250 250 0 01 10 80q-20 10-10 30-50-10-80 20a100 100 0 01-50-20 190 190 0 01-60 30 50 50 0 01-30-10l-60 40-40-10-40 40-20-20a19840 19840 0 01-40 30l-10-10a9340 9340 0 00-290 110 70 70 0 00-40-10 200 200 0 00-20-60q-30 20 10 50a110 110 0 01-10 30l-40-60a160 160 0 01 20-40h90q100-60 220-80v-30l70 20q30-20 30-50l20 20a3680 3680 0 01 210-70l110 10v-60l30-10 20 30" fill="#1b56b7"/><path d="M7260 6470q-10 10 10 20v250h-10a610 610 0 00-10-110h-20v-60q-10-20-20 0-20 20-10 50-60-20-110 0-50 10-10 30-40-10-60 20-50-20-90 10a40 40 0 01-20-10 1900 1900 0 00-110 50q-30-50-40 10a40 40 0 00-10-10l-110 30q30 10 0 30-40-20-70 10a100 100 0 01-10-60q-40-10-60 30l-30-50 10-30q-40-30-10-50a200 200 0 01 20 60 70 70 0 01 40 10 9340 9340 0 01 290-110l10 10 40-30 20 20 40-40 40 10 60-40a50 50 0 00 30 10 190 190 0 00 60-30 100 100 0 00 50 20q30-30 80-20-10-20 10-30" fill="#1c49b3"/><path d="M3680 6590v40a14690 14690 0 00-170 30q-40-10-50-40a200 200 0 00-30 40h-20q80-130 210-200l20 20 40 110" fill="#3bae60"/><path d="m7260 6740-10 70-20-30a180 180 0 00 20-30 130 130 0 01-50-40 200 200 0 01-10 50l-80-20a320 320 0 00-50 40 40 40 0 01-20-10 150 150 0 01-40 10q-40 30-80 30-20 40-50 20a180 180 0 00-70 40 40 40 0 00-10-20q-40 10-60 40l-30-30a250 250 0 01-80 20 260 260 0 01-40 50 880 880 0 00-60-110l-20-60q20-40 60-30a100 100 0 00 10 60q30-30 70-10 30-20 0-30l110-30a40 40 0 01 10 10q10-60 40-10a1900 1900 0 01 110-50l20 10q40-30 90-10 20-30 60-20-40-20 10-30 50-20 110 0-10-30 10-50 10-20 20 0v60h20l10 110" fill="#203db0"/><path d="M3680 6630a840 840 0 00 50 90l20 50-30-20q-20 10-30-10l-140 50-50-30q-20 10-10 30l-80-10a230 230 0 01-40 50l-10-10q-40 30-40-20a70 70 0 00-30 20v-10a670 670 0 01 120-150h20a200 200 0 01 30-40q10 30 50 40a14690 14690 0 01 170-30" fill="#3aae7d"/><path d="M3750 6770a410 410 0 01 70 100l-50-40q-30-10-50 10-20-10 0-20h-60a740 740 0 00-100 50q-40-20-60 20l-10-10-110 30a120 120 0 00-30-10 460 460 0 01-90 30l-20-20a190 190 0 00-70 60v-10a1940 1940 0 01 120-150v10a70 70 0 01 30-20q0 50 40 20l10 10a230 230 0 00 40-50l80 10q-10-20 10-30l50 30 140-50q10 20 30 10l30 20" fill="#34ac92"/><path d="m3820 6870 20 20q-40 0-60-20a590 590 0 01-140 70 310 310 0 01-70-10l-190 60q-10-20-30 0l-20-20q-20 10-10 30a40 40 0 01-20-10q-40 0-80 30a40 40 0 00-10-10q-30 50-50 0a880 880 0 00-80 60 720 720 0 01 90-110v10a190 190 0 01 70-60l20 20a460 460 0 00 90-30l30 10 110-30 10 10q20-40 60-20a740 740 0 01 100-50h60q-20 10 0 20 20-20 50-10l50 40" fill="#2ea7a0"/><path d="m7250 6810-10 40a390 390 0 01-40-80 980 980 0 00 0 160 40 40 0 01-20 10 730 730 0 00-60-20 130 130 0 01-50 20 140 140 0 00-30-60h-60q-40 60-70 10 40-20 10-40-10 30-30 10-20 20 10 30a50 50 0 01-30 10l-10-30-60 30v20q-30-30-50-20v30l-90 40q-30-20-30-50a300 300 0 01-20 40l20 10a180 180 0 00-20 60 600 600 0 00-30-70v-30a260 260 0 00 40-50 250 250 0 00 80-20l30 30q20-30 60-40a40 40 0 01 10 20 180 180 0 01 70-40q30 20 50-20 40 0 80-30a150 150 0 00 40-10l20 10a320 320 0 01 50-40l80 20a200 200 0 00 10-50 130 130 0 00 50 40 180 180 0 01-20 30l20 30" fill="#2635ae"/><path d="M7070 6940a810 810 0 00-30 30l-10-10a4560 4560 0 00-40 30q-40-20-60 20a41590 41590 0 01-160 70 240 240 0 01-10-40 480 480 0 00 70-60q-30 0-40-20l-10 20q-40-30-70 10l30 50-10 10q-20-30-50-20 20 10 0 20 10 30 30 10v20q-40-20-80 0v40l-20-90a180 180 0 01 20-60l-20-10a300 300 0 00 20-40q0 30 30 50l90-40v-30q20-10 50 20v-20l60-30 10 30a50 50 0 00 30-10q-30-10-10-30 20 20 30-10 30 20-10 40 30 50 70-10h60a140 140 0 01 30 60" fill="#2b31ae"/><path d="m7120 6920-20 30a40 40 0 01 20 20q-20 10 0 30l-40 20q20 10 10 40-70 40-140 40-20 20-30 10l-20 20a730 730 0 01-90 0q-10 30-30 20l10 60q-10 20-20 0-30 30-30 70-40-10-40-40a160 160 0 00-10 70l-50 10-10-160v-80q40-20 80 0v-20q-20 20-30-10 20-10 0-20 30-10 50 20l10-10-30-50q30-40 70-10l10-20q10 20 40 20a480 480 0 01-70 60l10 40a41590 41590 0 00 160-70q20-40 60-20l40-30 10 10a810 810 0 01 30-30 130 130 0 00 50-20" fill="#372cab"/><path d="m3920 6990 90 100-20 10a7730 7730 0 00-60-70q-40 60-100 30a400 400 0 01-130 20q-20 30-30 10a470 470 0 01-80 40 40 40 0 00-10-10l-130 30q-30 0-40 30l-10-20-50 30-20-20q-20 10-10 30a40 40 0 01-20-10 290 290 0 00-60 40q-40-20-60 10h-70a90 90 0 00-50 20q-20-40-50-10a320 320 0 01-40-20q10-40 50-30l20-40q10 60 40 10 70 10 120-30 60 10 110-20 20 10 20-10h30a40 40 0 01 10 20 450 450 0 00 80-40q20 0 30 20a100 100 0 01 30-30q50 10 80-20l40 10q30-50 80-10a230 230 0 00 20-50q30 20 60 0l10 20q40-80 120-40" fill="#229ac7"/><path d="M3840 6890q30 10 40 50-120 30-230 30a40 40 0 01-10 20l-40-10-10 20-70-10q-40 40-90 20a220 220 0 01-50 60q-30-20-60 10l-40-10q-60 30-120 10-40 10-60 40a40 40 0 01-20-20q-20 30-60 50a350 350 0 01 60-80 880 880 0 01 80-60q20 50 50 0a40 40 0 01 10 10q40-30 80-30l20 10q-10-20 10-30l20 20q20-20 30 0l190-60a310 310 0 00 70 10 590 590 0 00 140-70q20 20 60 20" fill="#2aa3ae"/><path d="M3880 6940a220 220 0 01 40 50q-80-40-120 40l-10-20q-30 20-60 0a230 230 0 01-20 50q-50-40-80 10l-40-10q-30 30-80 20a100 100 0 00-30 30q-10-20-30-20a450 450 0 01-80 40 40 40 0 00-10-20h-30q0 20-20 10-50 30-110 20-50 40-120 30-30 50-40-10l-20 40q-40-10-50 30h-20a9840 9840 0 01 70-80q40-20 60-50a40 40 0 00 20 20q20-30 60-40 60 20 120-10l40 10q30-30 60-10a220 220 0 00 50-60q50 20 90-20l70 10 10-20 40 10a40 40 0 00 10-20q110 0 230-30" fill="#269fba"/><path d="m4050 7140 50 50-20 10-10-10q-30 50-30 0a1420 1420 0 01-90 50 40 40 0 00-20-10 740 740 0 01-90 10 670 670 0 00-110 40h-110l-50 40-20-20q-90 50-190 50a27220 27220 0 00-90 40q-20-30-30 10-40-10-70 30l-50-10a570 570 0 00-110 50 50 50 0 01 0-30 710 710 0 00 50-50 260 260 0 01 90-10 240 240 0 01 60-40h60a180 180 0 00 50-30l20 20q40-30 90-40 40 20 60-20l10 10 90-30q30 10 50-20 20 30 30 0l10 10a300 300 0 00 50-30h40a40 40 0 01 10 20q10-50 50-20 30-40 50 0a50 50 0 00 10-30q30-10 60 10a320 320 0 00 60-50h40" fill="#1d7fca"/><path d="M7240 6850a670 670 0 01-30 160 1220 1220 0 01-70 130q-30-20-40 20-30-20-40 10l20 20q-40 10-60-10-20 0 0 20a1200 1200 0 00-140 50h-50q-30 30-60 10a1860 1860 0 01-30 20q0-40 30-70 10 20 20 0l-10-60q20 10 30-20h90l20-20q10 10 30-10 70 0 140-40 10-30-10-40l40-20q-20-20 0-30a40 40 0 00-20-20l20-30a730 730 0 01 60 20 40 40 0 00 20-10 980 980 0 01 0-160 390 390 0 00 40 80" fill="#3f2ca6"/><path d="M4010 7090q20 0 20 30h-40q-20 40-40 10a230 230 0 00-80 40h-90q-60 20-100 10a70 70 0 01-30 30l-30-10-10 10a1360 1360 0 00-220 50q-30 0-50 30-20-20-40 10-30-30-60 10v-50a93170 93170 0 00-100 50q-40-20-60 20a540 540 0 00-70-20 110 110 0 00-20 20q-50-10-60 40-20-10-40 20a70 70 0 00-10-30q-20 0-10 20-40 20-30 70-40-20-30-50a61830 61830 0 01 140-170h20a320 320 0 00 40 20q30-30 50 10a90 90 0 01 50-20h70q20-30 60-10a290 290 0 01 60-40l20 10q-10-20 10-30l20 20 50-30 10 20q10-30 40-30l130-30a40 40 0 01 10 10 470 470 0 00 80-40q10 20 30-10a400 400 0 00 130-20q60 30 100-30a7730 7730 0 01 60 70l20-10" fill="#1e8fce"/><path d="m4030 7120 20 20h-40a320 320 0 01-60 50q-30-20-60-10a50 50 0 01-10 30q-20-40-50 0-40-30-50 20a40 40 0 00-10-20h-40a300 300 0 01-50 30l-10-10q-10 30-30 0-20 30-50 20a1740 1740 0 01-90 30l-10-10q-20 40-60 20-50 10-90 40l-20-20a180 180 0 01-50 30h-60a240 240 0 00-60 40 260 260 0 00-90 10 710 710 0 01-50 50l-30-20-30 20q-50 0-80-30a50 50 0 01 0-30q-10-20 10-20a70 70 0 01 10 30q20-30 40-20 10-50 60-40a110 110 0 01 20-20 540 540 0 01 70 20q20-40 60-20l100-50v50q30-40 60-10 20-30 40-10 20-30 50-30a1360 1360 0 01 220-50l10-10 30 10a70 70 0 00 30-30q40 10 100-10h90a230 230 0 01 80-40q20 30 40-10h40" fill="#1d87cf"/><path d="M7140 7140a580 580 0 01-80 120 90 90 0 00-50 20q-20-40-40-10-20 50-80 70v40q-30-20-40 20l-140 20q-30 0-40-20-40 20-50-20l10-100v-120l10 160 50-10a160 160 0 01 10-70q0 30 40 40l30-20q30 20 60-10h50l140-50q-20-20 0-20 20 20 60 10l-20-20q10-30 40-10 10-40 40-20" fill="#532da3"/><path d="m4160 7260 40 40q-60-10-60 50-10-20-20 0-10-40-30 0-60-30-100 20a40 40 0 01-20-10q-20 30-50 20-120 50-240 50a210 210 0 00-10 30l-20-20a110 110 0 01-30 20 520 520 0 00-100 20l-10-10a100 100 0 01-30 30h-100l-30 30h-90q-60 40-130 30-10 30-20 0-20 10-10 40l-10 10a480 480 0 01-100-60q30-40 60 0 30-30 70-10 80-40 160-50l50 10q0-40 30-20a440 440 0 01 60-30q20 20 50 20-10-30 10-40 40-20 90 0 40-40 90-10l30-10-30-10 20-10a550 550 0 00 90 0q40-40 80-20 40-30 90-40l50-20a1080 1080 0 01 90-20l10-40 30-10q10 40 40 20" fill="#1c67bf"/><path d="M4080 7200a150 150 0 01-30 30 1290 1290 0 01-150 50q-40-20-50 20-60-20-120 0-10 30-40 20-40 30-70 0-10 40-40 20a860 860 0 01-100 30 40 40 0 00-10-10l-50 30h-50l-60 30h-90q-20 30-50 20-30 40-70 20a240 240 0 00-80 50 110 110 0 00-40-10v-30a130 130 0 00-50 0q20 10 30 50a80 80 0 01 40 0q-20 0-30 20a1380 1380 0 01-130-90q-10-50 30-70a50 50 0 00 0 30q30 30 80 30l30-20 30 20a50 50 0 00 0 30 570 570 0 01 110-50l50 10q30-40 70-30 10-40 30-10l90-40q100 0 190-50l20 20 50-40h110a670 670 0 01 110-40 740 740 0 00 90-10 40 40 0 01 20 10 1420 1420 0 00 90-50q0 50 30 0l10 10" fill="#1d7ac9"/><path d="M4100 7190h10q10 30 50 60v10q-30 20-40-20l-30 10-10 40a1080 1080 0 00-90 20l-50 20q-50 10-90 40-40-20-80 20a550 550 0 01-90 0l-20 10 30 10-30 10q-50-30-90 10-50-20-90 0-20 10-10 40-30 0-50-20a440 440 0 00-60 30q-30-20-30 20l-50-10q-80 10-160 50-40-20-70 10-30-40-60 0l-20-10q10-20 30-20a80 80 0 00-40 0q-10-40-30-50a130 130 0 01 50 0v30l40 10a240 240 0 01 80-50q40 20 70-20 30 10 50-20h90l60-30h50l50-30a40 40 0 01 10 10 860 860 0 00 100-30q30 20 40-20 30 30 70 0 30 10 40-20 60-20 120 0 10-40 50-20a1290 1290 0 00 150-50 150 150 0 00 30-30" fill="#1c6fc2"/><path d="m4250 7380-10 40a790 790 0 01-60 40 50 50 0 00-20-10 3300 3300 0 01-110 30l-10-10q-60 0-110 40-50-20-80 20-20-20-30 0a2240 2240 0 01-170 30 50 50 0 01-10 30q-60-20-110 0a470 470 0 01-50 40q-40-50-60 0-50 0-90 30-70-50-120 20a540 540 0 01-120-70l10-10q60-20 110 30a1900 1900 0 01 200-50l20 20q80-70 170-50 40-40 90-20a3510 3510 0 00 140-60h100a900 900 0 01 90-50 100 100 0 00 40 10q60-30 130-30a40 40 0 01 10 20l40-50 10 10" fill="#1d54b8"/><path d="M7060 7260v20l-80 80-10-10a230 230 0 01-60 60l-20-10a320 320 0 00-60 40q-40-20-70 0a700 700 0 01-130 70q-10-50-30-70a440 440 0 01 20-60q10 40 50 20 10 20 40 20l140-20q10-40 40-20v-40q60-20 80-70 20-30 40 10a90 90 0 01 50-20" fill="#602a9b"/><path d="m4200 7300 70 70-20 10-10-10-40 50a40 40 0 00-10-20q-70 0-130 30a100 100 0 01-40-10 900 900 0 00-90 50h-100a3510 3510 0 01-140 60q-50-20-90 20-90-20-170 50l-20-20a1900 1900 0 00-200 50q-50-50-110-30-10-30 10-40 10 30 20 0 70 10 130-30h90l30-30h100a100 100 0 00 30-30l10 10a520 520 0 01 100-20 110 110 0 00 30-20l20 20 10-30q120 0 240-50 30 10 50-20l20 10q40-50 100-20 20-40 30 0 10-20 20 0 0-60 60-50" fill="#1c5ebc"/><path d="m4270 7370 50 50q-20 0-30 20-20-40-30-10l30 30a7540 7540 0 00-180 60 40 40 0 00-10-20q-20 0 0 10-50 0-80 40a370 370 0 01-80-10 3070 3070 0 01-180 60 40 40 0 00-10-20q-40 30-90 30l-110 30-30 30q-20-20-40-10l10 10-50 30q-100-20-200 0l-30-20q50-70 120-20 40-30 90-30 20-50 60 0a470 470 0 00 50-40q50-20 110 0a50 50 0 00 10-30 2240 2240 0 00 170-30q10-20 30 0 30-40 80-20 50-40 110-40l10 10a3300 3300 0 00 110-30 50 50 0 01 20 10 790 790 0 00 60-40l10-40" fill="#1d4eb7"/><path d="M4340 7440a1400 1400 0 01 150 130q-40-10-80 10l-70-30q-20 30-30 0-20 20-50 10a170 170 0 00-50 40q-50 20-110 0a390 390 0 01-80 60 70 70 0 00-40-20l-80 40h-100q-20 10 0 20l-20 10h-100q-20 0-30 30a110 110 0 00-40-20q-50 40-110 40a110 110 0 01 30-50 1470 1470 0 01 140-40q-10-50 30-20a670 670 0 00 110-40l40 10q30-40 80-20a1330 1330 0 01 130-30 1380 1380 0 00 160-50q90 20 100-70l20-10" fill="#1f41b3"/><path d="m4490 7570 10 10q-40 10-10 40l-20 20-40-30q-10 20-30 10a440 440 0 01-50 30q-20-10 0-20-50-20-70 30a190 190 0 00-50-30 260 260 0 01-50 40h-40a740 740 0 01-110 70q-20-10 0-20h-30a710 710 0 01-90 30 1050 1050 0 00-110 0q-10 40-20 0a70 70 0 01-20 30h-70a130 130 0 00-50 30q-50-40-100-10l10 10q-20 10-20 30a1150 1150 0 01-130-60q40-30 100-20 60 0 110-40a110 110 0 01 40 20q10-30 30-30h100l20-10q-20-10 0-20h100l80-40a70 70 0 01 40 20 390 390 0 00 80-60q60 20 110 0a170 170 0 01 50-40q30 10 50-10 10 30 30 0l70 30q40-20 80-10" fill="#233bb2"/><path d="M6980 7360v20q-20 0-20 20a650 650 0 00-130 140l-50 40q-20-20-30-10v30q-40-10-50-30h-40l-30 30h-70q-20 30-40 0v-20l50-90q20-20 20-50h10q20 20 30 70a700 700 0 00 130-70q30-20 70 0a320 320 0 01 60-40l20 10a230 230 0 00 60-60l10 10" fill="#742b99"/><path d="m4320 7420 20 20-20 10q-10 90-100 70a1380 1380 0 01-160 50 1330 1330 0 00-130 30q-50-20-80 20l-40-10a670 670 0 01-110 40q-40-30-30 20a1470 1470 0 00-140 40 110 110 0 00-30 50q-60-10-100 20l-160-80q100-20 200 0l50-30-10-10q20-10 40 10l30-30 110-30q50 0 90-30a40 40 0 01 10 20 3070 3070 0 00 180-60l80 10q30-40 80-40-20-10 0-10a40 40 0 01 10 20 7540 7540 0 01 180-60l-30-30q10-30 30 10 10-20 30-20" fill="#1d47b5"/><path d="M4470 7640a250 250 0 00-50 40l-20-20a400 400 0 01-90 60l-10-20-20 40q-10-50-30-20 30 10 0 20l-20-20a100 100 0 01-10 20q-140 50-270 50-20 40-50 20a280 280 0 01-50 10 100 100 0 00-20 30q-10-20-30 0l-20-20q-60 30-120 10l-30 10 40 20a440 440 0 00-30 20l-110-50q0-20 20-30l-10-10q50-30 100 10a130 130 0 01 50-30h70a70 70 0 00 20-30q10 40 20 0a1050 1050 0 01 110 0 710 710 0 00 90-30h30q-20 10 0 20a740 740 0 00 110-70h40a260 260 0 00 50-40 190 190 0 01 50 30q20-50 70-30-20 10 0 20a440 440 0 00 50-30q20 10 30-10l40 30" fill="#2836b1"/><path d="M4500 7580a170 170 0 01 60 50v60h-30q0 70-50 30 0 30-20 10-10 30-40 50-20-30-40-30l10 20a480 480 0 01-50 20q-30 60-90 60-10 10 20 20a150 150 0 00-50 20l-10-10q-20 20-40 10-10 40-40 10-40 0-70 30-40-20-80 0-30-10-30-40l-10 10v-40a160 160 0 00-40 20 40 40 0 00 10 10q-50 30-80 0l10-10a50 50 0 00-30 0l-10 30a420 420 0 00-60 20 330 330 0 01-100-40 440 440 0 01 30-20l-40-20 30-10q60 20 120-10l20 20q20-20 30 0a100 100 0 01 20-30 280 280 0 00 50-10q30 20 50-20 130 0 270-50a100 100 0 00 10-20l20 20q30-10 0-20 20-30 30 20l20-40 10 20a400 400 0 00 90-60l20 20a250 250 0 01 50-40l20-20q-30-30 10-40" fill="#2f32af"/><path d="M4560 7630a470 470 0 01 90 70h-10l50 50a160 160 0 00-40 30h-100l-30 40q-20-20-40-10 20 10 10 30l-10-10a1420 1420 0 01-90 20q-40 20-40 60h-70q-10 50-50 20h-100q-50 0-90 30l-10-10q0 40-20 10-20 20-40 0l-40 40-190-70a420 420 0 01 60-20l10-30a50 50 0 01 30 0l-10 10q30 30 80 0a40 40 0 01-10-10 160 160 0 01 40-20v40l10-10q0 30 30 40 40-20 80 0 30-30 70-30 30 30 40-10 20 10 40-10l10 10a150 150 0 01 50-20q-30-10-20-20 60 0 90-60a480 480 0 00 50-20 40 40 0 00-10-20q20 0 40 30 30-20 40-50 20 20 20-10 50 40 50-30h30v-60" fill="#362faa"/><path d="m6780 7580-20 30q-30 10-40 40a70 70 0 00-30 30q-20 0-20 20-20 0-20 20-50 20-80 70-40 10-60 50a190 190 0 00-50 30 70 70 0 00-40 10q-80-80-150-10l-10-10 50-50q110-80 180-190l30-20q20 30 40 0h70l30-30h40q10 20 50 30v-30q10-10 30 10" fill="#8d2396"/><path d="M6460 7870v10a260 260 0 00-70 50 260 260 0 00-70 50 1080 1080 0 00-150 90 2340 2340 0 01-120 40q-40-10-30-50a1160 1160 0 01 240-200l10 10q70-70 150 10a70 70 0 01 40-10" fill="#9e2397"/><path d="M4650 7700a1650 1650 0 01 180 120l10 40a100 100 0 01-30 30q-60-10-120 10 0 30-30 20-20 30-40 10a920 920 0 00-110 30 90 90 0 00-50-10q-20 50-80 30-20 0 0 10h-40a640 640 0 01-110 40 710 710 0 01-140-10 530 530 0 00-80 10l-80-30 40-40q20 20 40 0 20 30 20-10l10 10q40-30 90-30h100q40 30 50-20h70q0-40 40-60a1420 1420 0 00 90-20l10 10q10-20-10-30 20-10 40 10l30-40h100a160 160 0 01 40-30l-50-50h10" fill="#422da9"/><path d="m4830 7820 120 70v30h-100q-20 20-40 10-80 10-130 80l-50-10a1080 1080 0 01-90 50l-40-10q-10 20-30 10-160 30-310 30l-150-50a530 530 0 01 80-10 710 710 0 00 140 10 640 640 0 00 110-40h40q-20-10 0-10 60 20 80-30a90 90 0 01 50 10 920 920 0 01 110-30q20 20 40-10 30 10 30-20 60-20 120-10a100 100 0 00 30-30 110 110 0 01-10-40" fill="#4f2ca6"/><path d="m4950 7890 120 60v30q40-10 10 10-120 10-200 70h-50l-70 30-220 40-30 30q-30-20-50 0a1160 1160 0 01-120-20 2850 2850 0 01-180-60q150 0 310-30 20 10 30-10l40 10a1080 1080 0 00 90-50l50 10q50-70 130-80 20 10 40-10h100" fill="#5d2ba1"/><path d="M5070 7950a450 450 0 00 120 40q100 50 230 70l-160 20q-50 0-90-20-20 60-70 40l-140 50q-20-20-40 0 10 30-20 10a3780 3780 0 01-70 50l-40-20 20-10q-60-10-110 20a290 290 0 00-100-10 530 530 0 01-140-30q20-20 50 0l30-30 220-40 70-30h50q80-60 200-70 30-20-10-10" fill="#72279d"/><path d="M5670 8100h270a7310 7310 0 01-410 130l90 10-20 10a3410 3410 0 01-550 10l-170-20a190 190 0 00 80-10 520 520 0 00 200 10 160 160 0 00 40-20 40 40 0 01 10 10q30-30 70-30 50 20 20-20l90-40a220 220 0 00 90-20 450 450 0 00 70 20 2540 2540 0 00 120-40" fill="#972597"/><path d="M5420 8060a600 600 0 00 130 20l120 20a2540 2540 0 01-120 40 450 450 0 01-70-20 220 220 0 01-90 20l-90 40q30 40-20 20-40 0-70 30a40 40 0 00-10-10 160 160 0 01-40 20 520 520 0 01-200-10 190 190 0 01-80 10l-280-50a290 290 0 01 100 10q50-30 110-20l-20 10 40 20a3780 3780 0 00 70-50q30 20 20-10 20-20 40 0l140-50q50 20 70-40 40 20 90 20l160-20" fill="#8d249a"/></svg>